<?xml version="1.0" encoding="UTF-8" standalone="no"?>
<svg
   width="32"
   height="32"
   fill="none"
   viewBox="0 0 32 32"
   version="1.1"
   id="svg16"
   xmlns="http://www.w3.org/2000/svg"
   xmlns:svg="http://www.w3.org/2000/svg">
  <g
     id="g21">
    <path
       d="m 8,23 h 16 c 0.552,0 1,0.448 1,1 0,0.552 -0.448,1 -1,1 H 8 C 7.448,25 7,24.552 7,24 7,23.448 7.448,23 8,23 Z"
       style="clip-rule:evenodd;fill:#f9f9f9;fill-rule:evenodd"
       id="path21" />
    <path
       d="m 21,13 c 0.552,0 1,0.448 1,1 v 7 c 0,0.552 -0.448,1 -1,1 -0.552,0 -1,-0.448 -1,-1 v -7 c 0,-0.552 0.448,-1 1,-1 z"
       style="clip-rule:evenodd;fill:#f9f9f9;fill-rule:evenodd"
       id="path20" />
    <path
       d="m 16,13 c 0.552,0 1,0.448 1,1 v 7 c 0,0.552 -0.448,1 -1,1 -0.552,0 -1,-0.448 -1,-1 v -7 c 0,-0.552 0.448,-1 1,-1 z"
       style="clip-rule:evenodd;fill:#f9f9f9;fill-rule:evenodd"
       id="path19" />
    <path
       d="m 11,13 c 0.552,0 1,0.448 1,1 v 7 c 0,0.552 -0.448,1 -1,1 -0.552,0 -1,-0.448 -1,-1 v -7 c 0,-0.552 0.448,-1 1,-1 z"
       style="clip-rule:evenodd;fill:#f9f9f9;fill-rule:evenodd"
       id="path18" />
    <path
       d="m 16,6 c -0.358,0 -0.734094,0.1486719 -0.996094,0.2636719 -0.297,0.13 -0.677125,0.3256875 -1.078125,0.5546875 -0.789,0.451 -1.796953,1.1032344 -2.876953,1.8652344 -2.1490499,1.5180002 -2.5486092,1.8163752 -4.7558593,3.6093752 -0.3909999,0.39 -0.3909999,1.024062 0,1.414062 0.39,0.391 1.0240625,0.391 1.4140625,0 0.97591,-0.7264 1.5556369,-1.180372 2.0605469,-1.576172 0.6815499,-0.5342 1.2286469,-0.963153 2.4355469,-1.814453 1.045,-0.7379997 1.972744,-1.3357654 2.714844,-1.7597654 0.3649,-0.209 0.649672,-0.3579375 0.888672,-0.4609375 0.09,-0.04 0.152359,-0.064125 0.193359,-0.078125 0.041,0.014 0.103359,0.038125 0.193359,0.078125 0.239,0.103 0.523672,0.2519375 0.888672,0.4609375 0.742,0.424 1.671797,1.0217657 2.716797,1.7597654 1.2068,0.8513 1.753947,1.280253 2.435547,1.814453 0.5049,0.3958 1.082694,0.849772 2.058594,1.576172 0.3901,0.391 1.024062,0.391 1.414062,0 0.391,-0.39 0.391,-1.024062 0,-1.414062 -2.2073,-1.793 -2.605006,-2.091375 -4.753906,-3.6093752 -1.08,-0.762 -2.090006,-1.4142344 -2.878906,-1.8652344 -0.401,-0.229 -0.779172,-0.4246875 -1.076172,-0.5546875 C 16.736047,6.1486719 16.358,6 16,6 Z"
       style="clip-rule:evenodd;fill:#f9f9f9;fill-rule:evenodd"
       id="path17" />
    <path
       d="M 16,0 C 3.2,0 0,3.2 0,16 0,28.8 3.2,32 16,32 28.8,32 32,28.8 32,16 32,3.2 28.8,0 16,0 Z m 0,0.875 c 6.4063,0 10.059841,0.8216094 12.181641,2.9433594 C 30.303341,5.9400994 31.125,9.59375 31.125,16 c 0,6.4063 -0.821659,10.059841 -2.943359,12.181641 C 26.059841,30.303341 22.4063,31.125 16,31.125 9.59375,31.125 5.9400994,30.303341 3.8183594,28.181641 1.6966094,26.059841 0.875,22.4063 0.875,16 0.875,9.59375 1.6966094,5.9400994 3.8183594,3.8183594 5.9400994,1.6966094 9.59375,0.875 16,0.875 Z"
       style="clip-rule:evenodd;fill:#f9f9f9;fill-rule:evenodd"
       id="path16" />
  </g>
  <defs
     id="defs16" />
</svg>
