<?xml version="1.0" encoding="UTF-8" standalone="no"?>
<!-- Created with Inkscape (http://www.inkscape.org/) -->

<svg
   width="100mm"
   height="100mm"
   viewBox="0 0 100 100"
   version="1.1"
   id="svg1"
   xmlns="http://www.w3.org/2000/svg"
   xmlns:svg="http://www.w3.org/2000/svg"
   xmlns:rdf="http://www.w3.org/1999/02/22-rdf-syntax-ns#"
   xmlns:cc="http://creativecommons.org/ns#"
   xmlns:dc="http://purl.org/dc/elements/1.1/">
  <title
     id="title7">FTC Open Alliance Official Logo Set</title>
  <defs
     id="defs1" />
  <g
     id="layer1"
     style="display:inline"
     transform="translate(1.9237061e-5)">
    <g
       id="g4"
       transform="translate(100)"
       style="display:inline">
      <path
         style="display:inline;fill:#0066ff;fill-opacity:1;stroke-width:25"
         d="m -25.369852,12.339299 -8.686809,15.045593 11.613245,6.7045 v 31.821314 l -27.556458,15.908589 -11.613761,-6.7045 -8.686808,15.04611 a 45.000327,45.000327 0 0 0 20.300569,4.838981 45.000327,45.000327 0 0 0 44.9998377,-44.999837 45.000327,45.000327 0 0 0 -20.3698157,-37.66075 z"
         id="path4" />
      <path
         style="display:inline;fill:#ff6600;stroke-width:25"
         d="m -49.999874,5.0002116 a 45.000327,45.000327 0 0 0 -44.999837,44.9998374 45.000327,45.000327 0 0 0 20.3693,37.66075 l 8.686808,-15.045593 -11.613245,-6.7045 V 34.089392 l 27.556974,-15.90859 11.613245,6.704501 8.686808,-15.0461103 A 45.000327,45.000327 0 0 0 -49.999874,5.0002116 Z"
         id="path1-3" />
    </g>
  </g>
  <metadata
     id="metadata2">
    <rdf:RDF>
      <cc:Work
         rdf:about="">
        <dc:title>FTC Open Alliance Official Logo Set</dc:title>
        <dc:creator>
          <cc:Agent>
            <dc:title>Hamid Hussain</dc:title>
          </cc:Agent>
        </dc:creator>
        <dc:publisher>
          <cc:Agent>
            <dc:title>The Open Alliance</dc:title>
          </cc:Agent>
        </dc:publisher>
      </cc:Work>
    </rdf:RDF>
  </metadata>
</svg>
