<?xml version="1.0" encoding="UTF-8" standalone="no"?>
<!-- Created with Inkscape (http://www.inkscape.org/) -->

<svg
   width="310mm"
   height="100mm"
   viewBox="0 0 310 100"
   version="1.1"
   id="svg1"
   xmlns="http://www.w3.org/2000/svg"
   xmlns:svg="http://www.w3.org/2000/svg"
   xmlns:rdf="http://www.w3.org/1999/02/22-rdf-syntax-ns#"
   xmlns:cc="http://creativecommons.org/ns#"
   xmlns:dc="http://purl.org/dc/elements/1.1/">
  <title
     id="title7">FTC Open Alliance Official Logo Set</title>
  <defs
     id="defs1" />
  <g
     id="layer5"
     style="display:inline"
     transform="translate(-100)">
    <g
       id="g4-1-2"
       style="display:inline"
       transform="translate(199.99988,-2.1136294e-4)">
      <path
         style="display:inline;fill:#0066ff;fill-opacity:1;stroke-width:25"
         d="m -25.369852,12.339299 -8.686809,15.045593 11.613245,6.7045 v 31.821314 l -27.556458,15.908589 -11.613761,-6.7045 -8.686808,15.04611 a 45.000327,45.000327 0 0 0 20.300569,4.838981 45.000327,45.000327 0 0 0 44.9998377,-44.999837 45.000327,45.000327 0 0 0 -20.3698157,-37.66075 z"
         id="path4-2-2" />
      <path
         style="display:inline;fill:#ff6600;stroke-width:25"
         d="m -49.999874,5.0002116 a 45.000327,45.000327 0 0 0 -44.999837,44.9998374 45.000327,45.000327 0 0 0 20.3693,37.66075 l 8.686808,-15.045593 -11.613245,-6.7045 V 34.089392 l 27.556974,-15.90859 11.613245,6.704501 8.686808,-15.0461103 A 45.000327,45.000327 0 0 0 -49.999874,5.0002116 Z"
         id="path1-3-7-8" />
    </g>
    <g
       id="text17"
       style="font-size:55.3548px;line-height:0.8;font-family:'Aldo the Apache';-inkscape-font-specification:'Aldo the Apache';fill:#ffffff;stroke-width:62.6556"
       transform="scale(1.0420921,0.95960808)"
       aria-label="OPEN&#10;ALLIANCE">
      <path
         d="m 196.71969,10.420927 h 23.59607 v 39.083517 h -23.59607 z m 8.21673,31.67765 h 7.18964 V 17.853823 h -7.18964 z m 27.16385,7.405867 h -8.1897 v -33.56966 l 5.91929,-5.513857 h 16.7578 v 29.16398 h -14.48739 z m 6.29769,-17.40649 V 17.853823 h -6.29769 v 14.244131 z m 11.67641,-21.677027 h 18.97415 v 7.432896 h -10.86554 v 7.54101 h 10.32497 v 7.297753 h -10.21686 v 9.405991 h 11.02772 v 7.405867 h -19.24444 z m 38.29968,22.433831 V 10.420927 h 7.73021 v 39.083517 h -8.10861 l -8.0005,-22.43383 v 22.43383 H 272.319 V 10.420927 h 8.10861 z"
         id="path17" />
      <path
         d="m 204.93642,93.788286 h -8.21673 V 60.894344 l 6.29769,-6.189575 h 17.08215 v 39.083517 h -8.1897 V 80.949648 h -6.97341 z m 6.97341,-20.271534 V 62.137665 h -6.97341 V 73.516752 Z M 223.7484,93.788286 V 54.704769 h 8.1897 v 31.67765 h 11.46018 v 7.405867 z m 23.16361,0 V 54.704769 h 8.1897 v 31.67765 h 11.46017 v 7.405867 z m 36.75905,-7.405867 v 7.405867 h -13.59544 v -7.405867 h 2.70287 V 62.110636 h -2.70287 v -7.405867 h 13.59544 v 7.405867 h -2.70287 v 24.271783 z m 11.73046,7.405867 h -8.21673 V 60.894344 l 6.29769,-6.189575 h 17.08215 v 39.083517 h -8.1897 V 80.949648 h -6.97341 z m 6.97341,-20.271534 V 62.137665 h -6.97341 v 11.379087 z m 27.89363,3.621847 v -22.43383 h 7.73021 v 39.083517 h -8.10861 l -8.0005,-22.433831 V 93.788286 H 314.2135 V 54.704769 h 8.10862 z m 26.38002,9.24382 v -4.757053 h 8.21673 v 6.757177 l -5.40574,5.405743 H 341.83685 V 60.083482 l 5.8382,-5.378713 h 17.19026 v 14.757676 h -8.21673 v -7.32478 h -6.595 v 24.244754 z m 11.4872,-31.67765 h 18.97416 v 7.432896 H 376.2444 v 7.54101 h 10.32496 v 7.297752 h -10.21685 v 9.405992 h 11.02772 v 7.405867 h -19.24445 z"
         id="path18" />
    </g>
  </g>
  <metadata
     id="metadata2">
    <rdf:RDF>
      <cc:Work
         rdf:about="">
        <dc:title>FTC Open Alliance Official Logo Set</dc:title>
        <dc:creator>
          <cc:Agent>
            <dc:title>Hamid Hussain</dc:title>
          </cc:Agent>
        </dc:creator>
        <dc:publisher>
          <cc:Agent>
            <dc:title>The Open Alliance</dc:title>
          </cc:Agent>
        </dc:publisher>
      </cc:Work>
    </rdf:RDF>
  </metadata>
</svg>
