<?xml version="1.0" encoding="UTF-8" standalone="no"?>
<!-- Created with Inkscape (http://www.inkscape.org/) -->

<svg
   width="365mm"
   height="100mm"
   viewBox="0 0 365 100"
   version="1.1"
   id="svg1"
   xmlns="http://www.w3.org/2000/svg"
   xmlns:svg="http://www.w3.org/2000/svg"
   xmlns:rdf="http://www.w3.org/1999/02/22-rdf-syntax-ns#"
   xmlns:cc="http://creativecommons.org/ns#"
   xmlns:dc="http://purl.org/dc/elements/1.1/">
  <title
     id="title7">FRC Open Alliance Official Logo Set</title>
  <defs
     id="defs1" />
  <g
     id="layer5"
     style="display:inline"
     transform="translate(1.3526197e-5,-100)">
    <path
       style="fill:#0066ff;fill-opacity:1;stroke-width:25"
       d="m 55.000018,135 10,10 24.99999,-25 5,5 v -20 h -20 l 5,5 z"
       id="path2-1-3" />
    <path
       style="fill:#ffffff;stroke-width:25"
       d="m 50.000008,165 10,10 h -5 v 20 h -10 v -20 h -5 z"
       id="path3-94-5" />
    <path
       style="fill:#ffffff;stroke-width:25"
       d="m 35.000008,150 -10,10 v -5 H 5.0000082 V 145 H 25.000008 v -5 z"
       id="path3-5-7-6" />
    <path
       id="path1-1-2"
       style="display:inline;fill:#0066ff;fill-opacity:1;stroke-width:25"
       d="M 50.000108,140.00009 A 10,10 0 0 0 40.000198,150 a 10,10 0 0 0 9.99991,9.9999 10,10 0 0 0 9.9999,-9.9999 10,10 0 0 0 -9.9999,-9.99991 z m 0,2.92902 6.12365,3.53519 v 7.0714 l -6.12365,3.53518 -6.12366,-3.53518 v -7.0714 z" />
    <path
       d="m 100.75885,172.0055 h 18.83801 v 31.20246 h -18.83801 z m 6.55986,25.28996 h 5.73987 v -19.35588 h -5.73987 z m 21.68636,5.9125 h -6.53828 v -26.80045 l 4.72569,-4.40201 h 13.37865 v 23.28316 h -11.56606 z m 5.02778,-13.89653 v -11.37185 h -5.02778 v 11.37185 z m 9.3219,-17.30593 h 15.14808 v 5.93408 h -8.67454 v 6.02039 h 8.24297 v 5.82619 h -8.15666 v 7.5093 h 8.80402 v 5.9125 h -15.36387 z m 30.57668,17.91013 V 172.0055 h 6.17144 v 31.20246 h -6.47354 l -6.38722,-17.91013 v 17.91013 h -6.12829 V 172.0055 h 6.47354 z m 25.87258,13.29233 h -6.55985 v -26.26099 l 5.02778,-4.94147 h 13.63759 v 31.20246 h -6.53827 v -10.24977 h -5.56725 z m 5.56725,-16.18385 v -9.08453 h -5.56725 v 9.08453 z m 9.45137,16.18385 V 172.0055 h 6.53827 v 25.28996 h 9.14927 v 5.9125 z m 18.49274,0 V 172.0055 h 6.53828 v 25.28996 h 9.14927 v 5.9125 z m 29.34672,-5.9125 v 5.9125 h -10.85396 v -5.9125 h 2.15784 V 177.918 h -2.15784 v -5.9125 h 10.85396 v 5.9125 h -2.15784 v 19.37746 z m 9.36505,5.9125 h -6.55985 v -26.26099 l 5.02778,-4.94147 h 13.63759 v 31.20246 h -6.53827 v -10.24977 h -5.56725 z m 5.56725,-16.18385 v -9.08453 h -5.56725 v 9.08453 z m 22.26897,2.89152 V 172.0055 h 6.17144 v 31.20246 h -6.47354 l -6.38722,-17.91013 v 17.91013 h -6.12829 V 172.0055 h 6.47354 z m 21.06058,7.37983 v -3.79781 h 6.55986 v 5.39462 l -4.3157,4.31569 h -14.06916 v -26.90835 l 4.66095,-4.29411 h 13.72391 v 11.78184 h -6.55986 v -5.84776 h -5.26514 v 19.35588 z m 9.17085,-25.28996 h 15.14809 v 5.93408 h -8.67455 v 6.02039 h 8.24298 v 5.82619 h -8.15666 v 7.5093 h 8.80401 v 5.9125 h -15.36387 z"
       id="text6"
       style="font-size:44.1927px;line-height:1;font-family:'Aldo the Apache';-inkscape-font-specification:'Aldo the Apache';fill:#0066ff;fill-opacity:1;stroke-width:68.082"
       transform="scale(1.0420921,0.95960808)"
       aria-label="OPEN ALLIANCE" />
    <path
       d="M 116.52492,136.34162 V 160 h -11.52491 v -47.39284 l 7.6072,-7.60719 h 18.67567 v 10.45989 h -14.75796 v 10.61204 h 13.61688 v 10.26972 z M 157.48967,160 150.64319,140.10718 h -3.04287 V 160 h -11.52491 v -47.24069 l 8.36792,-7.75934 h 23.54427 v 34.95507 h -6.2379 L 169.05261,160 Z m -1.02697,-30.20057 v -14.33957 h -8.86238 v 14.33957 z m 37.69366,19.77871 v -6.69433 h 11.56294 v 9.50899 L 198.1121,160 h -24.79946 v -47.43087 l 8.21577,-7.56916 h 24.19089 v 20.76764 h -11.56294 v -10.30775 h -9.28078 v 34.11828 z"
       id="text12"
       style="font-size:77.8977px;line-height:1;font-family:'Aldo the Apache';-inkscape-font-specification:'Aldo the Apache, Normal';fill:#ffffff;stroke-width:120.007"
       aria-label="FRC" />
  </g>
  <metadata
     id="metadata2">
    <rdf:RDF>
      <cc:Work
         rdf:about="">
        <dc:title>FRC Open Alliance Official Logo Set</dc:title>
        <dc:creator>
          <cc:Agent>
            <dc:title>Hamid Hussain</dc:title>
          </cc:Agent>
        </dc:creator>
        <dc:publisher>
          <cc:Agent>
            <dc:title>The Open Alliance</dc:title>
          </cc:Agent>
        </dc:publisher>
      </cc:Work>
    </rdf:RDF>
  </metadata>
</svg>
