<?xml version="1.0" encoding="UTF-8" standalone="no"?>
<svg
   width="547.66046"
   height="187.118"
   viewBox="0 0 547.66046 187.118"
   fill="none"
   version="1.1"
   id="svg9"
   xmlns="http://www.w3.org/2000/svg"
   xmlns:svg="http://www.w3.org/2000/svg">
  <defs
     id="defs9" />
  <mask
     id="mask0_92_15"
     maskUnits="userSpaceOnUse"
     x="58"
     y="17"
     width="498"
     height="153">
    <mask
       id="path-1-outside-1_92_15"
       maskUnits="userSpaceOnUse"
       x="59"
       y="17"
       width="494"
       height="94"
       fill="#000000">
      <rect
         fill="#ffffff"
         x="59"
         y="17"
         width="494"
         height="94"
         id="rect1" />
      <path
         d="m 60.6328,18.418 h 81.9142 v 16.289 h -63.34 v 23.9649 h 53.789 V 73.9648 H 79.207 V 110 H 60.6328 Z m 93.8442,0 h 77.988 v 16.289 h -59.414 v 18.2813 h 52.617 v 15.2929 h -52.617 v 25.4883 h 60.644 V 110 h -79.218 z m 93.843,0 h 46.582 c 7.032,0 13.125,0.7422 18.282,2.2265 5.156,1.4453 9.433,3.5547 12.832,6.3282 3.398,2.7734 5.918,6.1523 7.558,10.1367 1.68,3.9844 2.52,8.4961 2.52,13.5351 0,3.3985 -0.41,6.6407 -1.231,9.7266 -0.82,3.0469 -2.09,5.8594 -3.808,8.4375 -1.68,2.5781 -3.809,4.8828 -6.387,6.9141 -2.578,1.9921 -5.606,3.6523 -9.082,4.9804 L 335.508,110 H 312.773 L 295.547,83.9844 H 295.02 L 266.895,83.9258 V 110 H 248.32 Z m 47.051,49.4531 c 3.516,0 6.582,-0.4102 9.199,-1.2305 2.657,-0.8203 4.864,-1.9726 6.621,-3.457 1.797,-1.4844 3.125,-3.2813 3.985,-5.3906 0.898,-2.1485 1.347,-4.5313 1.347,-7.1485 0,-5.1172 -1.757,-9.0625 -5.273,-11.8359 -3.516,-2.8125 -8.809,-4.2188 -15.879,-4.2188 H 266.895 V 67.8711 Z M 352.125,18.418 h 46.582 c 7.031,0 13.125,0.7422 18.281,2.2265 5.157,1.4453 9.434,3.5547 12.832,6.3282 3.399,2.7734 5.918,6.1523 7.559,10.1367 1.68,3.9844 2.519,8.4961 2.519,13.5351 0,3.3985 -0.41,6.6407 -1.23,9.7266 -0.82,3.0469 -2.09,5.8594 -3.809,8.4375 -1.679,2.5781 -3.808,4.8828 -6.386,6.9141 -2.578,1.9921 -5.606,3.6523 -9.082,4.9804 L 439.312,110 H 416.578 L 399.352,83.9844 h -0.528 L 370.699,83.9258 V 110 h -18.574 z m 47.051,49.4531 c 3.515,0 6.582,-0.4102 9.199,-1.2305 2.656,-0.8203 4.863,-1.9726 6.621,-3.457 1.797,-1.4844 3.125,-3.2813 3.984,-5.3906 0.899,-2.1485 1.348,-4.5313 1.348,-7.1485 0,-5.1172 -1.758,-9.0625 -5.273,-11.8359 -3.516,-2.8125 -8.809,-4.2188 -15.879,-4.2188 H 370.699 V 67.8711 Z M 487.16,18.418 h 19.688 L 551.145,110 H 531.633 L 524.309,94.5898 H 470.812 L 463.723,110 H 444.152 Z M 516.984,79.2969 497.18,37.6953 477.902,79.2969 Z"
         id="path1" />
    </mask>
    <path
       d="m 60.6328,18.418 h 81.9142 v 16.289 h -63.34 v 23.9649 h 53.789 V 73.9648 H 79.207 V 110 H 60.6328 Z m 93.8442,0 h 77.988 v 16.289 h -59.414 v 18.2813 h 52.617 v 15.2929 h -52.617 v 25.4883 h 60.644 V 110 h -79.218 z m 93.843,0 h 46.582 c 7.032,0 13.125,0.7422 18.282,2.2265 5.156,1.4453 9.433,3.5547 12.832,6.3282 3.398,2.7734 5.918,6.1523 7.558,10.1367 1.68,3.9844 2.52,8.4961 2.52,13.5351 0,3.3985 -0.41,6.6407 -1.231,9.7266 -0.82,3.0469 -2.09,5.8594 -3.808,8.4375 -1.68,2.5781 -3.809,4.8828 -6.387,6.9141 -2.578,1.9921 -5.606,3.6523 -9.082,4.9804 L 335.508,110 H 312.773 L 295.547,83.9844 H 295.02 L 266.895,83.9258 V 110 H 248.32 Z m 47.051,49.4531 c 3.516,0 6.582,-0.4102 9.199,-1.2305 2.657,-0.8203 4.864,-1.9726 6.621,-3.457 1.797,-1.4844 3.125,-3.2813 3.985,-5.3906 0.898,-2.1485 1.347,-4.5313 1.347,-7.1485 0,-5.1172 -1.757,-9.0625 -5.273,-11.8359 -3.516,-2.8125 -8.809,-4.2188 -15.879,-4.2188 H 266.895 V 67.8711 Z M 352.125,18.418 h 46.582 c 7.031,0 13.125,0.7422 18.281,2.2265 5.157,1.4453 9.434,3.5547 12.832,6.3282 3.399,2.7734 5.918,6.1523 7.559,10.1367 1.68,3.9844 2.519,8.4961 2.519,13.5351 0,3.3985 -0.41,6.6407 -1.23,9.7266 -0.82,3.0469 -2.09,5.8594 -3.809,8.4375 -1.679,2.5781 -3.808,4.8828 -6.386,6.9141 -2.578,1.9921 -5.606,3.6523 -9.082,4.9804 L 439.312,110 H 416.578 L 399.352,83.9844 h -0.528 L 370.699,83.9258 V 110 h -18.574 z m 47.051,49.4531 c 3.515,0 6.582,-0.4102 9.199,-1.2305 2.656,-0.8203 4.863,-1.9726 6.621,-3.457 1.797,-1.4844 3.125,-3.2813 3.984,-5.3906 0.899,-2.1485 1.348,-4.5313 1.348,-7.1485 0,-5.1172 -1.758,-9.0625 -5.273,-11.8359 -3.516,-2.8125 -8.809,-4.2188 -15.879,-4.2188 H 370.699 V 67.8711 Z M 487.16,18.418 h 19.688 L 551.145,110 H 531.633 L 524.309,94.5898 H 470.812 L 463.723,110 H 444.152 Z M 516.984,79.2969 497.18,37.6953 477.902,79.2969 Z"
       fill="#000000"
       id="path2" />
    <path
       d="m 60.6328,18.418 v -1 h -1 v 1 z m 81.9142,0 h 1 v -1 h -1 z m 0,16.289 v 1 h 1 v -1 z m -63.34,0 v -1 h -1 v 1 z m 0,23.9649 h -1 v 1 h 1 z m 53.789,0 h 1 v -1 h -1 z m 0,15.2929 v 1 h 1 v -1 z m -53.789,0 v -1 h -1 v 1 z m 0,36.0352 v 1 h 1 v -1 z m -18.5742,0 h -1 v 1 h 1 z m 0,-91.582 v 1 h 81.9142 v -1 -1 H 60.6328 Z m 81.9142,0 h -1 v 16.289 h 1 1 V 18.418 Z m 0,16.289 v -1 h -63.34 v 1 1 h 63.34 z m -63.34,0 h -1 v 23.9649 h 1 1 V 34.707 Z m 0,23.9649 v 1 h 53.789 v -1 -1 H 79.207 Z m 53.789,0 h -1 v 15.2929 h 1 1 V 58.6719 Z m 0,15.2929 v -1 H 79.207 v 1 1 h 53.789 z m -53.789,0 h -1 V 110 h 1 1 V 73.9648 Z m 0,36.0352 v -1 H 60.6328 v 1 1 H 79.207 Z m -18.5742,0 h 1 V 18.418 h -1 -1 V 110 Z M 154.477,18.418 v -1 h -1 v 1 z m 77.988,0 h 1 v -1 h -1 z m 0,16.289 v 1 h 1 v -1 z m -59.414,0 v -1 h -1 v 1 z m 0,18.2813 h -1 v 1 h 1 z m 52.617,0 h 1 v -1 h -1 z m 0,15.2929 v 1 h 1 v -1 z m -52.617,0 v -1 h -1 v 1 z m 0,25.4883 h -1 v 1 h 1 z m 60.644,0 h 1 v -1 h -1 z m 0,16.2305 v 1 h 1 v -1 z m -79.218,0 h -1 v 1 h 1 z m 0,-91.582 v 1 h 77.988 v -1 -1 h -77.988 z m 77.988,0 h -1 v 16.289 h 1 1 V 18.418 Z m 0,16.289 v -1 h -59.414 v 1 1 h 59.414 z m -59.414,0 h -1 v 18.2813 h 1 1 V 34.707 Z m 0,18.2813 v 1 h 52.617 v -1 -1 h -52.617 z m 52.617,0 h -1 v 15.2929 h 1 1 V 52.9883 Z m 0,15.2929 v -1 h -52.617 v 1 1 h 52.617 z m -52.617,0 h -1 v 25.4883 h 1 1 V 68.2812 Z m 0,25.4883 v 1 h 60.644 v -1 -1 h -60.644 z m 60.644,0 h -1 V 110 h 1 1 V 93.7695 Z m 0,16.2305 v -1 h -79.218 v 1 1 h 79.218 z m -79.218,0 h 1 V 18.418 h -1 -1 V 110 Z M 248.32,18.418 v -1 h -1 v 1 z m 64.864,2.2265 -0.277,0.961 0.007,0.0019 z m 20.39,16.4649 -0.924,0.3807 0.003,0.0077 z m 1.289,23.2617 0.966,0.26 10e-4,-0.0031 z m -3.808,8.4375 -0.832,-0.5547 -0.006,0.0088 z m -6.387,6.9141 0.611,0.7913 0.008,-0.0059 z m -9.082,4.9804 -0.357,-0.9341 -1.181,0.4511 0.711,1.0453 z M 335.508,110 v 1 h 1.889 l -1.062,-1.562 z m -22.735,0 -0.833,0.552 0.296,0.448 h 0.537 z m -17.226,-26.0156 0.834,-0.5521 -0.297,-0.4479 h -0.537 z m -0.527,0 -0.003,1 h 0.003 z m -28.125,-0.0586 0.002,-1 -1.002,-0.0021 v 1.0021 z m 0,26.0742 v 1 h 1 v -1 z m -18.575,0 h -1 v 1 h 1 z m 56.25,-43.3594 -0.295,-0.9555 -0.004,0.0013 z m 6.621,-3.457 -0.637,-0.771 -0.008,0.007 z m 3.985,-5.3906 -0.923,-0.3859 -0.003,0.0086 z m -3.926,-18.9844 -0.625,0.7809 0.006,0.0042 z m -44.355,-4.2188 v -1 h -1 v 1 z m 0,33.2813 h -1 v 1 h 1 z M 248.32,18.418 v 1 h 46.582 v -1 -1 H 248.32 Z m 46.582,0 v 1 c 6.965,0 12.961,0.7356 18.005,2.1875 l 0.277,-0.961 0.276,-0.9609 C 308.191,18.1667 302,17.418 294.902,17.418 Z m 18.282,2.2265 -0.27,0.9629 c 5.052,1.4162 9.198,3.4705 12.469,6.14 l 0.633,-0.7747 0.632,-0.7748 c -3.526,-2.8774 -7.934,-5.0418 -13.195,-6.5163 z m 12.832,6.3282 -0.633,0.7747 c 3.273,2.6704 5.69,5.9148 7.267,9.7427 l 0.924,-0.3807 0.925,-0.3808 c -1.705,-4.1408 -4.326,-7.6542 -7.851,-10.5307 z m 7.558,10.1367 -0.921,0.3884 c 1.62,3.8428 2.441,8.2193 2.441,13.1467 h 1 1 c 0,-5.1507 -0.859,-9.7976 -2.598,-13.9236 z m 2.52,13.5351 h -1 c 0,3.3173 -0.401,6.4728 -1.197,9.4697 l 0.966,0.2569 0.967,0.2569 c 0.844,-3.175 1.264,-6.5039 1.264,-9.9835 z m -1.231,9.7266 -0.965,-0.26 c -0.793,2.944 -2.018,5.6567 -3.675,8.1428 l 0.832,0.5547 0.832,0.5547 c 1.78,-2.6701 3.094,-5.5825 3.942,-8.7322 z m -3.808,8.4375 -0.838,-0.5459 c -1.617,2.481 -3.67,4.7061 -6.168,6.6745 l 0.619,0.7855 0.619,0.7854 c 2.658,-2.0941 4.863,-4.4783 6.606,-7.1536 z m -6.387,6.9141 -0.611,-0.7913 c -2.491,1.9245 -5.43,3.5395 -8.828,4.8376 l 0.357,0.9341 0.357,0.9342 c 3.555,-1.3582 6.671,-3.0635 9.336,-5.1234 z m -9.082,4.9804 -0.827,0.5623 19.922,29.2966 0.827,-0.562 0.827,-0.562 -19.922,-29.2972 z M 335.508,110 v -1 h -22.735 v 1 1 h 22.735 z m -22.735,0 0.834,-0.552 -17.226,-26.0157 -0.834,0.5521 -0.834,0.5521 17.227,26.0155 z M 295.547,83.9844 v -1 h -0.527 v 1 1 h 0.527 z m -0.527,0 0.002,-1 -28.125,-0.0586 -0.002,1 -0.003,1 28.125,0.0586 z m -28.125,-0.0586 h -1 V 110 h 1 1 V 83.9258 Z m 0,26.0742 v -1 H 248.32 v 1 1 h 18.575 z m -18.575,0 h 1 V 18.418 h -1 -1 V 110 Z m 47.051,-42.1289 v 1 c 3.59,0 6.762,-0.4184 9.498,-1.2763 l -0.299,-0.9542 -0.299,-0.9542 c -2.497,0.7828 -5.459,1.1847 -8.9,1.1847 z m 9.199,-1.2305 0.295,0.9555 c 2.759,-0.8519 5.092,-2.0613 6.972,-3.6485 l -0.646,-0.764 -0.645,-0.764 c -1.636,1.3816 -3.717,2.4768 -6.271,3.2656 z m 6.621,-3.457 0.637,0.771 c 1.922,-1.5872 3.351,-3.5182 4.274,-5.7843 l -0.926,-0.3773 -0.926,-0.3773 c -0.796,1.9526 -2.023,3.6153 -3.695,4.9969 z m 3.985,-5.3906 0.922,0.3858 c 0.956,-2.2849 1.425,-4.801 1.425,-7.5343 h -1 -1 c 0,2.5011 -0.428,4.7507 -1.27,6.7627 z m 1.347,-7.1485 h 1 c 0,-5.3739 -1.861,-9.6293 -5.654,-12.621 l -0.619,0.7851 -0.619,0.7851 c 3.239,2.5552 4.892,6.1904 4.892,11.0508 z m -5.273,-11.8359 0.625,-0.7809 c -3.769,-3.0152 -9.328,-4.4379 -16.504,-4.4379 v 1 1 c 6.965,0 11.992,1.3899 15.254,3.9997 z m -15.879,-4.2188 v -1 h -28.476 v 1 1 h 28.476 z m -28.476,0 h -1 v 33.2813 h 1 1 V 34.5898 Z m 0,33.2813 v 1 h 28.476 v -1 -1 h -28.476 z m 85.23,-49.4531 v -1 h -1 v 1 z m 64.863,2.2265 -0.276,0.961 0.006,0.0019 z m 20.391,16.4649 -0.925,0.3807 0.003,0.0077 z m 1.289,23.2617 0.966,0.26 V 60.628 Z m -3.809,8.4375 -0.832,-0.5547 -0.005,0.0088 z m -6.386,6.9141 0.611,0.7913 0.008,-0.0059 z m -9.082,4.9804 -0.357,-0.9341 -1.181,0.4511 0.711,1.0453 z M 439.312,110 v 1 h 1.89 l -1.063,-1.562 z m -22.734,0 -0.834,0.552 0.297,0.448 h 0.537 z m -17.226,-26.0156 0.833,-0.5521 -0.296,-0.4479 h -0.537 z m -0.528,0 -0.002,1 h 0.002 z m -28.125,-0.0586 0.002,-1 -1.002,-0.0021 v 1.0021 z m 0,26.0742 v 1 h 1 v -1 z m -18.574,0 h -1 v 1 h 1 z m 56.25,-43.3594 -0.295,-0.9555 -0.004,0.0013 z m 6.621,-3.457 -0.637,-0.771 -0.008,0.007 z m 3.984,-5.3906 -0.922,-0.3859 -0.004,0.0086 z m -3.925,-18.9844 -0.625,0.7809 0.005,0.0042 z m -44.356,-4.2188 v -1 h -1 v 1 z m 0,33.2813 h -1 v 1 h 1 z M 352.125,18.418 v 1 h 46.582 v -1 -1 h -46.582 z m 46.582,0 v 1 c 6.965,0 12.961,0.7356 18.005,2.1875 l 0.276,-0.961 0.277,-0.9609 c -5.269,-1.5169 -11.46,-2.2656 -18.558,-2.2656 z m 18.281,2.2265 -0.27,0.9629 c 5.053,1.4162 9.199,3.4705 12.47,6.14 l 0.632,-0.7747 0.633,-0.7748 c -3.526,-2.8774 -7.935,-5.0418 -13.195,-6.5163 z m 12.832,6.3282 -0.632,0.7747 c 3.272,2.6704 5.69,5.9148 7.266,9.7427 l 0.925,-0.3807 0.925,-0.3808 c -1.705,-4.1408 -4.327,-7.6542 -7.851,-10.5307 z m 7.559,10.1367 -0.922,0.3884 c 1.62,3.8428 2.441,8.2193 2.441,13.1467 h 1 1 c 0,-5.1507 -0.858,-9.7976 -2.598,-13.9236 z m 2.519,13.5351 h -1 c 0,3.3173 -0.4,6.4728 -1.196,9.4697 l 0.966,0.2569 0.966,0.2569 c 0.844,-3.175 1.264,-6.5039 1.264,-9.9835 z m -1.23,9.7266 -0.966,-0.26 c -0.792,2.944 -2.017,5.6567 -3.675,8.1428 l 0.832,0.5547 0.832,0.5547 c 1.781,-2.6701 3.095,-5.5825 3.943,-8.7322 z m -3.809,8.4375 -0.837,-0.5459 c -1.617,2.481 -3.67,4.7061 -6.168,6.6745 l 0.619,0.7855 0.619,0.7854 c 2.657,-2.0941 4.862,-4.4783 6.605,-7.1536 z m -6.386,6.9141 -0.612,-0.7913 c -2.49,1.9245 -5.429,3.5395 -8.827,4.8376 l 0.357,0.9341 0.356,0.9342 c 3.556,-1.3582 6.671,-3.0635 9.337,-5.1234 z m -9.082,4.9804 -0.827,0.5623 19.922,29.2966 0.826,-0.562 0.827,-0.562 -19.921,-29.2972 z M 439.312,110 v -1 h -22.734 v 1 1 h 22.734 z m -22.734,0 0.834,-0.552 -17.227,-26.0157 -0.833,0.5521 -0.834,0.5521 17.226,26.0155 z M 399.352,83.9844 v -1 h -0.528 v 1 1 h 0.528 z m -0.528,0 0.002,-1 -28.125,-0.0586 -0.002,1 -0.002,1 28.125,0.0586 z m -28.125,-0.0586 h -1 V 110 h 1 1 V 83.9258 Z m 0,26.0742 v -1 h -18.574 v 1 1 h 18.574 z m -18.574,0 h 1 V 18.418 h -1 -1 V 110 Z m 47.051,-42.1289 v 1 c 3.59,0 6.761,-0.4184 9.498,-1.2763 l -0.299,-0.9542 -0.299,-0.9542 c -2.498,0.7828 -5.459,1.1847 -8.9,1.1847 z m 9.199,-1.2305 0.295,0.9555 c 2.759,-0.8519 5.092,-2.0613 6.971,-3.6485 l -0.645,-0.764 -0.645,-0.764 c -1.636,1.3816 -3.717,2.4768 -6.271,3.2656 z m 6.621,-3.457 0.637,0.771 c 1.921,-1.5872 3.35,-3.5182 4.274,-5.7843 l -0.927,-0.3773 -0.926,-0.3773 c -0.795,1.9526 -2.022,3.6153 -3.695,4.9969 z m 3.984,-5.3906 0.923,0.3858 c 0.956,-2.2849 1.425,-4.801 1.425,-7.5343 h -1 -1 c 0,2.5011 -0.429,4.7507 -1.27,6.7627 z m 1.348,-7.1485 h 1 c 0,-5.3739 -1.862,-9.6293 -5.654,-12.621 l -0.619,0.7851 -0.62,0.7851 c 3.239,2.5552 4.893,6.1904 4.893,11.0508 z m -5.273,-11.8359 0.624,-0.7809 c -3.769,-3.0152 -9.328,-4.4379 -16.503,-4.4379 v 1 1 c 6.965,0 11.992,1.3899 15.254,3.9997 z m -15.879,-4.2188 v -1 h -28.477 v 1 1 h 28.477 z m -28.477,0 h -1 v 33.2813 h 1 1 V 34.5898 Z m 0,33.2813 v 1 h 28.477 v -1 -1 H 370.699 Z M 487.16,18.418 v -1 h -0.635 l -0.27,0.5749 z m 19.688,0 0.9,-0.4355 -0.273,-0.5645 h -0.627 z M 551.145,110 v 1 h 1.594 l -0.694,-1.435 z m -19.512,0 -0.903,0.429 0.271,0.571 h 0.632 z m -7.324,-15.4102 0.903,-0.4292 -0.272,-0.5708 h -0.631 z m -53.497,0 v -1 h -0.64 l -0.268,0.5821 z M 463.723,110 v 1 h 0.64 l 0.268,-0.582 z m -19.571,0 -0.905,-0.425 -0.669,1.425 h 1.574 z m 72.832,-30.7031 v 1 h 1.584 l -0.681,-1.4299 z m -19.804,-41.6016 0.903,-0.4298 -0.916,-1.9223 -0.895,1.9317 z m -19.278,41.6016 -0.907,-0.4205 -0.658,1.4205 h 1.565 z M 487.16,18.418 v 1 h 19.688 v -1 -1 H 487.16 Z m 19.688,0 -0.901,0.4354 44.297,91.5816 0.901,-0.435 0.9,-0.435 -44.297,-91.5825 z M 551.145,110 v -1 h -19.512 v 1 1 h 19.512 z m -19.512,0 0.903,-0.429 -7.324,-15.4104 -0.903,0.4292 -0.904,0.4293 7.325,15.4099 z m -7.324,-15.4102 v -1 h -53.497 v 1 1 h 53.497 z m -53.497,0 -0.908,-0.4179 -7.09,15.4101 0.909,0.418 0.908,0.418 7.09,-15.4102 z M 463.723,110 v -1 h -19.571 v 1 1 h 19.571 z m -19.571,0 0.905,0.425 43.008,-91.582 -0.905,-0.425 -0.905,-0.4251 -43.008,91.5821 z m 72.832,-30.7031 0.903,-0.4299 -19.804,-41.6015 -0.903,0.4298 -0.903,0.4298 19.804,41.6016 z m -19.804,-41.6016 -0.908,-0.4204 -19.277,41.6015 0.907,0.4205 0.908,0.4204 19.277,-41.6016 z m -19.278,41.6016 v 1 h 39.082 v -1 -1 h -39.082 z"
       fill="#000000"
       mask="url(#path-1-outside-1_92_15)"
       id="path3" />
    <mask
       id="path-3-outside-2_92_15"
       maskUnits="userSpaceOnUse"
       x="58"
       y="121"
       width="498"
       height="49"
       fill="#000000">
      <rect
         fill="#ffffff"
         x="58"
         y="121"
         width="498"
         height="49"
         id="rect3" />
      <path
         d="m 81.5836,168.7 c -7.42,0 -13.0433,-2.03 -16.87,-6.09 -3.78,-4.06 -5.67,-9.543 -5.67,-16.45 0,-4.947 0.7933,-9.193 2.38,-12.74 1.6333,-3.593 4.1067,-6.347 7.42,-8.26 3.3133,-1.96 7.5367,-2.94 12.67,-2.94 2.6133,0 4.9933,0.21 7.14,0.63 2.1933,0.373 4.2233,0.887 6.09,1.54 v 6.65 c -1.8667,-0.747 -3.8733,-1.307 -6.02,-1.68 -2.1,-0.42 -4.3167,-0.63 -6.65,-0.63 -5.6,0 -9.5667,1.493 -11.9,4.48 -2.2867,2.987 -3.43,7.303 -3.43,12.95 0,5.273 1.26,9.287 3.78,12.04 2.52,2.707 6.4167,4.06 11.69,4.06 2.1467,0 4.2933,-0.163 6.44,-0.49 2.1933,-0.373 4.2467,-0.933 6.16,-1.68 v 6.72 c -1.8667,0.607 -3.8967,1.073 -6.09,1.4 -2.1467,0.327 -4.5267,0.49 -7.14,0.49 z m 46.0354,0 c -7.14,0 -12.483,-1.867 -16.03,-5.6 -3.547,-3.78 -5.32,-9.613 -5.32,-17.5 0,-8.213 1.773,-14.163 5.32,-17.85 3.547,-3.687 8.89,-5.53 16.03,-5.53 7.187,0 12.53,1.843 16.03,5.53 3.547,3.687 5.32,9.637 5.32,17.85 0,7.887 -1.773,13.72 -5.32,17.5 -3.5,3.733 -8.843,5.6 -16.03,5.6 z m 0,-6.44 c 4.713,0 8.167,-1.283 10.36,-3.85 2.24,-2.613 3.36,-6.883 3.36,-12.81 0,-6.253 -1.12,-10.617 -3.36,-13.09 -2.193,-2.52 -5.647,-3.78 -10.36,-3.78 -4.667,0 -8.12,1.26 -10.36,3.78 -2.193,2.473 -3.29,6.837 -3.29,13.09 0,5.927 1.097,10.197 3.29,12.81 2.24,2.567 5.693,3.85 10.36,3.85 z m 35.615,5.74 v -45.08 h 7.84 l 14.28,29.19 14.21,-29.19 h 7.84 V 168 h -7.56 v -32.69 l -12.18,24.92 h -4.62 l -12.25,-24.92 V 168 Z m 59.804,0 v -45.08 h 20.09 c 3.453,0 6.3,0.653 8.54,1.96 2.24,1.307 3.896,3.103 4.97,5.39 1.073,2.24 1.61,4.807 1.61,7.7 0,4.48 -1.4,8.073 -4.2,10.78 -2.754,2.707 -6.487,4.06 -11.2,4.06 h -12.18 V 168 Z m 7.63,-21.21 h 10.78 c 3.033,0 5.32,-0.793 6.86,-2.38 1.54,-1.587 2.31,-3.733 2.31,-6.44 0,-2.893 -0.747,-5.133 -2.24,-6.72 -1.447,-1.587 -3.64,-2.38 -6.58,-2.38 h -11.13 z m 60.434,21.91 c -7.14,0 -12.484,-1.867 -16.03,-5.6 -3.547,-3.78 -5.32,-9.613 -5.32,-17.5 0,-8.213 1.773,-14.163 5.32,-17.85 3.546,-3.687 8.89,-5.53 16.03,-5.53 7.186,0 12.53,1.843 16.03,5.53 3.546,3.687 5.32,9.637 5.32,17.85 0,7.887 -1.774,13.72 -5.32,17.5 -3.5,3.733 -8.844,5.6 -16.03,5.6 z m 0,-6.44 c 4.713,0 8.166,-1.283 10.36,-3.85 2.24,-2.613 3.36,-6.883 3.36,-12.81 0,-6.253 -1.12,-10.617 -3.36,-13.09 -2.194,-2.52 -5.647,-3.78 -10.36,-3.78 -4.667,0 -8.12,1.26 -10.36,3.78 -2.194,2.473 -3.29,6.837 -3.29,13.09 0,5.927 1.096,10.197 3.29,12.81 2.24,2.567 5.693,3.85 10.36,3.85 z m 35.615,5.74 v -45.08 h 6.72 l 23.52,33.18 v -33.18 h 7.56 V 168 h -6.72 l -23.45,-33.11 V 168 Z m 53.515,0 v -45.08 h 31.43 v 5.95 h -23.8 v 13.65 h 21.21 v 5.88 h -21.21 v 13.72 h 23.8 V 168 Z m 45.311,0 v -45.08 h 6.72 l 23.52,33.18 v -33.18 h 7.56 V 168 h -6.72 l -23.45,-33.11 V 168 Z m 65.204,0 v -39.13 h -14.42 v -5.95 h 36.4 v 5.95 h -14.35 V 168 Z m 46.451,0.7 c -5.833,0 -10.523,-0.747 -14.07,-2.24 v -6.72 c 2.007,0.747 4.154,1.353 6.44,1.82 2.334,0.467 4.644,0.7 6.93,0.7 3.594,0 6.277,-0.42 8.05,-1.26 1.82,-0.84 2.73,-2.52 2.73,-5.04 0,-1.54 -0.373,-2.777 -1.12,-3.71 -0.746,-0.933 -1.983,-1.727 -3.71,-2.38 -1.726,-0.7 -4.106,-1.423 -7.14,-2.17 -4.853,-1.26 -8.26,-2.847 -10.22,-4.76 -1.96,-1.96 -2.94,-4.643 -2.94,-8.05 0,-3.967 1.447,-7.07 4.34,-9.31 2.894,-2.24 7.21,-3.36 12.95,-3.36 2.614,0 5.064,0.187 7.35,0.56 2.334,0.373 4.154,0.793 5.46,1.26 v 6.72 c -3.546,-1.353 -7.466,-2.03 -11.76,-2.03 -3.36,0 -5.973,0.443 -7.84,1.33 -1.866,0.887 -2.8,2.497 -2.8,4.83 0,1.353 0.327,2.45 0.98,3.29 0.654,0.84 1.774,1.563 3.36,2.17 1.634,0.607 3.874,1.283 6.72,2.03 3.687,0.933 6.534,2.053 8.54,3.36 2.054,1.26 3.477,2.753 4.27,4.48 0.84,1.68 1.26,3.593 1.26,5.74 0,3.967 -1.47,7.093 -4.41,9.38 -2.94,2.24 -7.396,3.36 -13.37,3.36 z"
         id="path4" />
    </mask>
    <path
       d="m 81.5836,168.7 c -7.42,0 -13.0433,-2.03 -16.87,-6.09 -3.78,-4.06 -5.67,-9.543 -5.67,-16.45 0,-4.947 0.7933,-9.193 2.38,-12.74 1.6333,-3.593 4.1067,-6.347 7.42,-8.26 3.3133,-1.96 7.5367,-2.94 12.67,-2.94 2.6133,0 4.9933,0.21 7.14,0.63 2.1933,0.373 4.2233,0.887 6.09,1.54 v 6.65 c -1.8667,-0.747 -3.8733,-1.307 -6.02,-1.68 -2.1,-0.42 -4.3167,-0.63 -6.65,-0.63 -5.6,0 -9.5667,1.493 -11.9,4.48 -2.2867,2.987 -3.43,7.303 -3.43,12.95 0,5.273 1.26,9.287 3.78,12.04 2.52,2.707 6.4167,4.06 11.69,4.06 2.1467,0 4.2933,-0.163 6.44,-0.49 2.1933,-0.373 4.2467,-0.933 6.16,-1.68 v 6.72 c -1.8667,0.607 -3.8967,1.073 -6.09,1.4 -2.1467,0.327 -4.5267,0.49 -7.14,0.49 z m 46.0354,0 c -7.14,0 -12.483,-1.867 -16.03,-5.6 -3.547,-3.78 -5.32,-9.613 -5.32,-17.5 0,-8.213 1.773,-14.163 5.32,-17.85 3.547,-3.687 8.89,-5.53 16.03,-5.53 7.187,0 12.53,1.843 16.03,5.53 3.547,3.687 5.32,9.637 5.32,17.85 0,7.887 -1.773,13.72 -5.32,17.5 -3.5,3.733 -8.843,5.6 -16.03,5.6 z m 0,-6.44 c 4.713,0 8.167,-1.283 10.36,-3.85 2.24,-2.613 3.36,-6.883 3.36,-12.81 0,-6.253 -1.12,-10.617 -3.36,-13.09 -2.193,-2.52 -5.647,-3.78 -10.36,-3.78 -4.667,0 -8.12,1.26 -10.36,3.78 -2.193,2.473 -3.29,6.837 -3.29,13.09 0,5.927 1.097,10.197 3.29,12.81 2.24,2.567 5.693,3.85 10.36,3.85 z m 35.615,5.74 v -45.08 h 7.84 l 14.28,29.19 14.21,-29.19 h 7.84 V 168 h -7.56 v -32.69 l -12.18,24.92 h -4.62 l -12.25,-24.92 V 168 Z m 59.804,0 v -45.08 h 20.09 c 3.453,0 6.3,0.653 8.54,1.96 2.24,1.307 3.896,3.103 4.97,5.39 1.073,2.24 1.61,4.807 1.61,7.7 0,4.48 -1.4,8.073 -4.2,10.78 -2.754,2.707 -6.487,4.06 -11.2,4.06 h -12.18 V 168 Z m 7.63,-21.21 h 10.78 c 3.033,0 5.32,-0.793 6.86,-2.38 1.54,-1.587 2.31,-3.733 2.31,-6.44 0,-2.893 -0.747,-5.133 -2.24,-6.72 -1.447,-1.587 -3.64,-2.38 -6.58,-2.38 h -11.13 z m 60.434,21.91 c -7.14,0 -12.484,-1.867 -16.03,-5.6 -3.547,-3.78 -5.32,-9.613 -5.32,-17.5 0,-8.213 1.773,-14.163 5.32,-17.85 3.546,-3.687 8.89,-5.53 16.03,-5.53 7.186,0 12.53,1.843 16.03,5.53 3.546,3.687 5.32,9.637 5.32,17.85 0,7.887 -1.774,13.72 -5.32,17.5 -3.5,3.733 -8.844,5.6 -16.03,5.6 z m 0,-6.44 c 4.713,0 8.166,-1.283 10.36,-3.85 2.24,-2.613 3.36,-6.883 3.36,-12.81 0,-6.253 -1.12,-10.617 -3.36,-13.09 -2.194,-2.52 -5.647,-3.78 -10.36,-3.78 -4.667,0 -8.12,1.26 -10.36,3.78 -2.194,2.473 -3.29,6.837 -3.29,13.09 0,5.927 1.096,10.197 3.29,12.81 2.24,2.567 5.693,3.85 10.36,3.85 z m 35.615,5.74 v -45.08 h 6.72 l 23.52,33.18 v -33.18 h 7.56 V 168 h -6.72 l -23.45,-33.11 V 168 Z m 53.515,0 v -45.08 h 31.43 v 5.95 h -23.8 v 13.65 h 21.21 v 5.88 h -21.21 v 13.72 h 23.8 V 168 Z m 45.311,0 v -45.08 h 6.72 l 23.52,33.18 v -33.18 h 7.56 V 168 h -6.72 l -23.45,-33.11 V 168 Z m 65.204,0 v -39.13 h -14.42 v -5.95 h 36.4 v 5.95 h -14.35 V 168 Z m 46.451,0.7 c -5.833,0 -10.523,-0.747 -14.07,-2.24 v -6.72 c 2.007,0.747 4.154,1.353 6.44,1.82 2.334,0.467 4.644,0.7 6.93,0.7 3.594,0 6.277,-0.42 8.05,-1.26 1.82,-0.84 2.73,-2.52 2.73,-5.04 0,-1.54 -0.373,-2.777 -1.12,-3.71 -0.746,-0.933 -1.983,-1.727 -3.71,-2.38 -1.726,-0.7 -4.106,-1.423 -7.14,-2.17 -4.853,-1.26 -8.26,-2.847 -10.22,-4.76 -1.96,-1.96 -2.94,-4.643 -2.94,-8.05 0,-3.967 1.447,-7.07 4.34,-9.31 2.894,-2.24 7.21,-3.36 12.95,-3.36 2.614,0 5.064,0.187 7.35,0.56 2.334,0.373 4.154,0.793 5.46,1.26 v 6.72 c -3.546,-1.353 -7.466,-2.03 -11.76,-2.03 -3.36,0 -5.973,0.443 -7.84,1.33 -1.866,0.887 -2.8,2.497 -2.8,4.83 0,1.353 0.327,2.45 0.98,3.29 0.654,0.84 1.774,1.563 3.36,2.17 1.634,0.607 3.874,1.283 6.72,2.03 3.687,0.933 6.534,2.053 8.54,3.36 2.054,1.26 3.477,2.753 4.27,4.48 0.84,1.68 1.26,3.593 1.26,5.74 0,3.967 -1.47,7.093 -4.41,9.38 -2.94,2.24 -7.396,3.36 -13.37,3.36 z"
       fill="#000000"
       id="path5" />
    <path
       d="m 64.7136,162.61 -0.7319,0.681 0.0042,0.005 z m -3.29,-29.19 -0.9104,-0.414 -0.0024,0.006 z m 7.42,-8.26 0.5001,0.866 0.009,-0.005 z m 19.81,-2.31 -0.192,0.981 0.0121,0.003 0.0121,0.002 z m 6.09,1.54 h 1 v -0.709 l -0.6696,-0.235 z m 0,6.65 -0.3714,0.928 1.3714,0.549 v -1.477 z m -6.02,-1.68 -0.1961,0.981 0.0123,0.002 0.0125,0.002 z m -18.55,3.85 -0.7881,-0.616 -0.0059,0.008 z m 0.35,24.99 -0.7377,0.675 0.0058,0.006 z m 18.13,3.57 0.1504,0.989 0.0087,-0.002 0.0087,-0.001 z m 6.16,-1.68 h 1 v -1.464 l -1.3635,0.532 z m 0,6.72 0.3091,0.951 0.6909,-0.225 v -0.726 z m -6.09,1.4 -0.1473,-0.989 h -0.0031 z m -7.14,0.49 v -1 c -7.2394,0 -12.561,-1.976 -16.1423,-5.776 l -0.7277,0.686 -0.7277,0.686 c 4.0721,4.32 9.9971,6.404 17.5977,6.404 z m -16.87,-6.09 0.7319,-0.681 c -3.5681,-3.833 -5.4019,-9.05 -5.4019,-15.769 h -1 -1 c 0,7.095 1.9462,12.844 5.9381,17.131 z m -5.67,-16.45 h 1 c 0,-4.843 0.777,-8.943 2.2928,-12.332 l -0.9128,-0.408 -0.9128,-0.408 c -1.6576,3.705 -2.4672,8.098 -2.4672,13.148 z m 2.38,-12.74 0.9104,0.414 c 1.5499,-3.41 3.8829,-6.002 7.0097,-7.808 l -0.5001,-0.866 -0.5001,-0.866 c -3.4999,2.021 -6.1136,4.935 -7.8303,8.712 z m 7.42,-8.26 0.5091,0.861 c 3.116,-1.844 7.1488,-2.801 12.1609,-2.801 v -1 -1 c -5.2546,0 -9.6685,1.003 -13.1791,3.079 z m 12.67,-2.94 v 1 c 2.5609,0 4.8754,0.206 6.948,0.611 l 0.192,-0.981 0.192,-0.981 c -2.2207,-0.435 -4.6662,-0.649 -7.332,-0.649 z m 7.14,0.63 -0.1678,0.986 c 2.1448,0.365 4.1198,0.865 5.9275,1.498 l 0.3303,-0.944 0.3304,-0.944 c -1.9257,-0.674 -4.0107,-1.2 -6.2526,-1.582 z m 6.09,1.54 h -1 v 6.65 h 1 1 v -6.65 z m 0,6.65 0.3714,-0.928 c -1.9363,-0.775 -4.0106,-1.353 -6.2201,-1.737 l -0.1713,0.985 -0.1713,0.985 c 2.0838,0.363 4.0229,0.905 5.8199,1.623 z m -6.02,-1.68 0.1961,-0.981 c -2.17,-0.434 -4.4527,-0.649 -6.8461,-0.649 v 1 1 c 2.2733,0 4.4239,0.205 6.4539,0.611 z m -6.65,-0.63 v -1 c -5.7556,0 -10.0879,1.536 -12.688,4.864 l 0.788,0.616 0.788,0.616 c 2.0666,-2.646 5.6676,-4.096 11.112,-4.096 z m -11.9,4.48 -0.794,-0.608 c -2.4724,3.229 -3.636,7.796 -3.636,13.558 h 1 1 c 0,-5.532 1.1231,-9.598 3.224,-12.342 z m -3.43,12.95 h -1 c 0,5.42 1.295,9.713 4.0423,12.715 l 0.7377,-0.675 0.7377,-0.675 c -2.2927,-2.505 -3.5177,-6.239 -3.5177,-11.365 z m 3.78,12.04 -0.7319,0.681 c 2.7781,2.984 6.9915,4.379 12.4219,4.379 v -1 -1 c -5.1162,0 -8.6962,-1.312 -10.9581,-3.741 z m 11.69,4.06 v 1 c 2.1976,0 4.3946,-0.167 6.5904,-0.501 l -0.1504,-0.989 -0.1504,-0.989 c -2.0975,0.32 -4.1939,0.479 -6.2896,0.479 z m 6.44,-0.49 0.1678,0.986 c 2.2548,-0.384 4.3742,-0.961 6.3557,-1.734 l -0.3635,-0.932 -0.3635,-0.932 c -1.8451,0.72 -3.8324,1.263 -5.9643,1.626 z m 6.16,-1.68 h -1 v 6.72 h 1 1 v -6.72 z m 0,6.72 -0.3091,-0.951 c -1.8076,0.587 -3.7828,1.042 -5.9282,1.362 l 0.1473,0.989 0.1473,0.989 c 2.2413,-0.334 4.3261,-0.812 6.2518,-1.438 z m -6.09,1.4 -0.1504,-0.989 c -2.0881,0.318 -4.4169,0.479 -6.9896,0.479 v 1 1 c 2.6539,0 5.0852,-0.166 7.2904,-0.501 z m 22.8654,-5.11 -0.729,0.684 0.004,0.005 z m 0,-35.35 -0.721,-0.693 z m 32.06,0 -0.725,0.689 0.004,0.004 z m 0,35.35 -0.729,-0.684 h -10e-4 z m -5.67,-4.69 -0.759,-0.651 -0.001,0.001 z m 0,-25.9 -0.754,0.657 0.006,0.007 0.007,0.007 z m -20.72,0 -0.747,-0.664 -0.001,0.001 z m 0,25.9 -0.766,0.643 0.006,0.007 0.007,0.008 z m 10.36,10.29 v -1 c -6.975,0 -12.011,-1.821 -15.305,-5.289 l -0.725,0.689 -0.725,0.689 c 3.799,3.999 9.45,5.911 16.755,5.911 z m -16.03,-5.6 0.729,-0.684 c -3.301,-3.518 -5.049,-9.055 -5.049,-16.816 h -1 -1 c 0,8.012 1.798,14.142 5.591,18.184 z m -5.32,-17.5 h 1 c 0,-8.104 1.755,-13.742 5.041,-17.157 l -0.721,-0.693 -0.721,-0.693 c -3.808,3.958 -5.599,10.221 -5.599,18.543 z m 5.32,-17.85 0.721,0.693 c 3.293,-3.423 8.331,-5.223 15.309,-5.223 v -1 -1 c -7.302,0 -12.951,1.887 -16.751,5.837 z m 16.03,-5.53 v 1 c 7.028,0 12.061,1.801 15.305,5.219 l 0.725,-0.689 0.725,-0.689 c -3.756,-3.956 -9.41,-5.841 -16.755,-5.841 z m 16.03,5.53 -0.721,0.693 c 3.286,3.415 5.041,9.053 5.041,17.157 h 1 1 c 0,-8.322 -1.791,-14.585 -5.599,-18.543 z m 5.32,17.85 h -1 c 0,7.761 -1.748,13.298 -5.049,16.816 l 0.729,0.684 0.729,0.684 c 3.793,-4.042 5.591,-10.172 5.591,-18.184 z m -5.32,17.5 -0.73,-0.684 c -3.244,3.461 -8.275,5.284 -15.3,5.284 v 1 1 c 7.349,0 13.004,-1.911 16.76,-5.916 z m -16.03,-0.84 v 1 c 4.885,0 8.67,-1.334 11.12,-4.2 l -0.76,-0.65 -0.76,-0.65 c -1.937,2.267 -5.058,3.5 -9.6,3.5 z m 10.36,-3.85 0.759,0.651 c 2.474,-2.886 3.601,-7.453 3.601,-13.461 h -1 -1 c 0,5.845 -1.113,9.819 -3.119,12.159 z m 3.36,-12.81 h 1 c 0,-6.31 -1.117,-10.999 -3.619,-13.761 l -0.741,0.671 -0.741,0.671 c 1.978,2.185 3.101,6.222 3.101,12.419 z m -3.36,-13.09 0.754,-0.657 c -2.451,-2.816 -6.234,-4.123 -11.114,-4.123 v 1 1 c 4.547,0 7.67,1.213 9.606,3.437 z m -10.36,-3.78 v -1 c -4.838,0 -8.613,1.31 -11.107,4.116 l 0.747,0.664 0.747,0.664 c 1.986,-2.234 5.118,-3.444 9.613,-3.444 z m -10.36,3.78 -0.748,-0.663 c -2.449,2.761 -3.542,7.446 -3.542,13.753 h 1 1 c 0,-6.2 1.1,-10.241 3.038,-12.427 z m -3.29,13.09 h -1 c 0,6.005 1.102,10.568 3.524,13.453 l 0.766,-0.643 0.766,-0.643 c -1.965,-2.341 -3.056,-6.318 -3.056,-12.167 z m 3.29,12.81 -0.753,0.658 c 2.492,2.856 6.269,4.192 11.113,4.192 v -1 -1 c -4.49,0 -7.619,-1.23 -9.607,-3.508 z m 45.975,9.59 h -1 v 1 h 1 z m 0,-45.08 v -1 h -1 v 1 z m 7.84,0 0.898,-0.439 -0.274,-0.561 h -0.624 z m 14.28,29.19 -0.898,0.439 0.9,1.841 0.897,-1.842 z m 14.21,-29.19 v -1 h -0.625 l -0.274,0.562 z m 7.84,0 h 1 v -1 h -1 z m 0,45.08 v 1 h 1 v -1 z m -7.56,0 h -1 v 1 h 1 z m 0,-32.69 h 1 l -1.898,-0.439 z m -12.18,24.92 v 1 h 0.625 l 0.274,-0.561 z m -4.62,0 -0.897,0.441 0.275,0.559 h 0.622 z m -12.25,-24.92 0.898,-0.441 -1.898,0.441 z m 0,32.69 v 1 h 1 v -1 z m -7.56,0 h 1 v -45.08 h -1 -1 V 168 Z m 0,-45.08 v 1 h 7.84 v -1 -1 h -7.84 z m 7.84,0 -0.898,0.439 14.28,29.19 0.898,-0.439 0.898,-0.439 -14.28,-29.19 z m 14.28,29.19 0.899,0.438 14.21,-29.19 -0.899,-0.438 -0.899,-0.438 -14.21,29.19 z m 14.21,-29.19 v 1 h 7.84 v -1 -1 h -7.84 z m 7.84,0 h -1 V 168 h 1 1 v -45.08 z m 0,45.08 v -1 h -7.56 v 1 1 h 7.56 z m -7.56,0 h 1 v -32.69 h -1 -1 V 168 Z m 0,-32.69 -0.898,-0.439 -12.18,24.92 0.898,0.439 0.899,0.439 12.18,-24.92 z m -12.18,24.92 v -1 h -4.62 v 1 1 h 4.62 z m -4.62,0 0.898,-0.441 -12.25,-24.92 -0.898,0.441 -0.897,0.441 12.25,24.92 z m -12.25,-24.92 h -1 V 168 h 1 1 v -32.69 z m 0,32.69 v -1 h -7.56 v 1 1 h 7.56 z m 52.244,0 h -1 v 1 h 1 z m 0,-45.08 v -1 h -1 v 1 z m 28.63,1.96 0.504,-0.864 v 0 z m 4.97,5.39 -0.906,0.425 0.004,0.007 z m -2.59,18.48 -0.695,-0.719 -0.006,0.006 z m -23.38,4.06 v -1 h -1 v 1 z m 0,15.19 v 1 h 1 v -1 z m 0,-21.21 h -1 v 1 h 1 z m 17.71,-15.54 -0.739,0.674 0.005,0.006 0.006,0.005 z m -17.71,-2.38 v -1 h -1 v 1 z m -7.63,39.13 h 1 v -45.08 h -1 -1 V 168 Z m 0,-45.08 v 1 h 20.09 v -1 -1 h -20.09 z m 20.09,0 v 1 c 3.333,0 5.991,0.631 8.036,1.824 l 0.504,-0.864 0.504,-0.864 c -2.436,-1.421 -5.471,-2.096 -9.044,-2.096 z m 8.54,1.96 -0.504,0.864 c 2.07,1.207 3.584,2.853 4.569,4.951 l 0.905,-0.425 0.905,-0.425 c -1.162,-2.475 -2.961,-4.423 -5.371,-5.829 z m 4.97,5.39 -0.902,0.432 c 0.999,2.085 1.512,4.5 1.512,7.268 h 1 1 c 0,-3.018 -0.561,-5.737 -1.708,-8.132 z m 1.61,7.7 h -1 c 0,4.253 -1.32,7.572 -3.895,10.061 l 0.695,0.719 0.695,0.719 c 3.024,-2.924 4.505,-6.792 4.505,-11.499 z m -4.2,10.78 -0.701,-0.713 c -2.527,2.484 -5.987,3.773 -10.499,3.773 v 1 1 c 4.914,0 8.921,-1.417 11.901,-4.347 z m -11.2,4.06 v -1 h -12.18 v 1 1 h 12.18 z m -12.18,0 h -1 V 168 h 1 1 v -15.19 z m 0,15.19 v -1 h -7.63 v 1 1 h 7.63 z m 0,-21.21 v 1 h 10.78 v -1 -1 h -10.78 z m 10.78,0 v 1 c 3.2,0 5.788,-0.839 7.577,-2.684 l -0.717,-0.696 -0.718,-0.696 c -1.29,1.329 -3.276,2.076 -6.142,2.076 z m 6.86,-2.38 0.717,0.696 c 1.76,-1.813 2.593,-4.231 2.593,-7.136 h -1 -1 c 0,2.508 -0.708,4.383 -2.028,5.744 z m 2.31,-6.44 h 1 c 0,-3.062 -0.793,-5.579 -2.512,-7.405 l -0.728,0.685 -0.728,0.685 c 1.267,1.347 1.968,3.311 1.968,6.035 z m -2.24,-6.72 0.739,-0.674 c -1.699,-1.862 -4.206,-2.706 -7.319,-2.706 v 1 1 c 2.766,0 4.646,0.743 5.841,2.054 z m -6.58,-2.38 v -1 h -11.13 v 1 1 h 11.13 z m -11.13,0 h -1 v 17.92 h 1 1 v -17.92 z m 44.404,34.23 -0.729,0.684 0.004,0.005 z m 0,-35.35 -0.721,-0.693 z m 32.06,0 -0.725,0.689 0.004,0.004 z m 0,35.35 -0.729,-0.684 h -0.001 z m -5.67,-4.69 -0.759,-0.651 -10e-4,0.001 z m 0,-25.9 -0.754,0.657 0.006,0.007 0.007,0.007 z m -20.72,0 -0.748,-0.664 v 0.001 z m 0,25.9 -0.766,0.643 0.006,0.007 0.006,0.008 z m 10.36,10.29 v -1 c -6.975,0 -12.011,-1.821 -15.305,-5.289 l -0.725,0.689 -0.725,0.689 c 3.799,3.999 9.45,5.911 16.755,5.911 z m -16.03,-5.6 0.729,-0.684 c -3.301,-3.518 -5.049,-9.055 -5.049,-16.816 h -1 -1 c 0,8.012 1.798,14.142 5.591,18.184 z m -5.32,-17.5 h 1 c 0,-8.104 1.755,-13.742 5.04,-17.157 l -0.72,-0.693 -0.721,-0.693 c -3.808,3.958 -5.599,10.221 -5.599,18.543 z m 5.32,-17.85 0.72,0.693 c 3.294,-3.423 8.332,-5.223 15.31,-5.223 v -1 -1 c -7.302,0 -12.951,1.887 -16.751,5.837 z m 16.03,-5.53 v 1 c 7.028,0 12.06,1.801 15.305,5.219 l 0.725,-0.689 0.725,-0.689 c -3.756,-3.956 -9.41,-5.841 -16.755,-5.841 z m 16.03,5.53 -0.721,0.693 c 3.285,3.415 5.041,9.053 5.041,17.157 h 1 1 c 0,-8.322 -1.791,-14.585 -5.6,-18.543 z m 5.32,17.85 h -1 c 0,7.761 -1.748,13.298 -5.049,16.816 l 0.729,0.684 0.729,0.684 c 3.792,-4.042 5.591,-10.172 5.591,-18.184 z m -5.32,17.5 -0.73,-0.684 c -3.244,3.461 -8.275,5.284 -15.3,5.284 v 1 1 c 7.348,0 13.004,-1.911 16.759,-5.916 z m -16.03,-0.84 v 1 c 4.885,0 8.67,-1.334 11.12,-4.2 l -0.76,-0.65 -0.76,-0.65 c -1.937,2.267 -5.059,3.5 -9.6,3.5 z m 10.36,-3.85 0.759,0.651 c 2.474,-2.886 3.601,-7.453 3.601,-13.461 h -1 -1 c 0,5.845 -1.113,9.819 -3.119,12.159 z m 3.36,-12.81 h 1 c 0,-6.31 -1.118,-10.999 -3.619,-13.761 l -0.741,0.671 -0.741,0.671 c 1.978,2.185 3.101,6.222 3.101,12.419 z m -3.36,-13.09 0.754,-0.657 c -2.451,-2.816 -6.235,-4.123 -11.114,-4.123 v 1 1 c 4.547,0 7.67,1.213 9.606,3.437 z m -10.36,-3.78 v -1 c -4.839,0 -8.613,1.31 -11.108,4.116 l 0.748,0.664 0.747,0.664 c 1.986,-2.234 5.118,-3.444 9.613,-3.444 z m -10.36,3.78 -0.748,-0.663 c -2.449,2.761 -3.542,7.446 -3.542,13.753 h 1 1 c 0,-6.2 1.1,-10.241 3.038,-12.427 z m -3.29,13.09 h -1 c 0,6.005 1.102,10.568 3.524,13.453 l 0.766,-0.643 0.766,-0.643 c -1.965,-2.341 -3.056,-6.318 -3.056,-12.167 z m 3.29,12.81 -0.754,0.658 c 2.493,2.856 6.27,4.192 11.114,4.192 v -1 -1 c -4.49,0 -7.619,-1.23 -9.607,-3.508 z m 45.975,9.59 h -1 v 1 h 1 z m 0,-45.08 v -1 h -1 v 1 z m 6.72,0 0.816,-0.578 -0.299,-0.422 h -0.517 z m 23.52,33.18 -0.816,0.578 1.816,2.562 v -3.14 z m 0,-33.18 v -1 h -1 v 1 z m 7.56,0 h 1 v -1 h -1 z m 0,45.08 v 1 h 1 v -1 z m -6.72,0 -0.816,0.578 0.299,0.422 h 0.517 z m -23.45,-33.11 0.816,-0.578 -1.816,-2.564 v 3.142 z m 0,33.11 v 1 h 1 v -1 z m -7.63,0 h 1 v -45.08 h -1 -1 V 168 Z m 0,-45.08 v 1 h 6.72 v -1 -1 h -6.72 z m 6.72,0 -0.816,0.578 23.52,33.18 0.816,-0.578 0.816,-0.578 -23.52,-33.18 z m 23.52,33.18 h 1 v -33.18 h -1 -1 v 33.18 z m 0,-33.18 v 1 h 7.56 v -1 -1 h -7.56 z m 7.56,0 h -1 V 168 h 1 1 v -45.08 z m 0,45.08 v -1 h -6.72 v 1 1 h 6.72 z m -6.72,0 0.816,-0.578 -23.45,-33.11 -0.816,0.578 -0.816,0.578 23.45,33.11 z m -23.45,-33.11 h -1 V 168 h 1 1 v -33.11 z m 0,33.11 v -1 h -7.63 v 1 1 h 7.63 z m 45.885,0 h -1 v 1 h 1 z m 0,-45.08 v -1 h -1 v 1 z m 31.429,0 h 1 v -1 h -1 z m 0,5.95 v 1 h 1 v -1 z m -23.799,0 v -1 h -1 v 1 z m 0,13.65 h -1 v 1 h 1 z m 21.21,0 h 1 v -1 h -1 z m 0,5.88 v 1 h 1 v -1 z m -21.21,0 v -1 h -1 v 1 z m 0,13.72 h -1 v 1 h 1 z m 23.799,0 h 1 v -1 h -1 z m 0,5.88 v 1 h 1 v -1 z m -31.429,0 h 1 v -45.08 h -1 -1 V 168 Z m 0,-45.08 v 1 h 31.429 v -1 -1 h -31.429 z m 31.429,0 h -1 v 5.95 h 1 1 v -5.95 z m 0,5.95 v -1 h -23.799 v 1 1 h 23.799 z m -23.799,0 h -1 v 13.65 h 1 1 v -13.65 z m 0,13.65 v 1 h 21.21 v -1 -1 h -21.21 z m 21.21,0 h -1 v 5.88 h 1 1 v -5.88 z m 0,5.88 v -1 h -21.21 v 1 1 h 21.21 z m -21.21,0 h -1 v 13.72 h 1 1 V 148.4 Z m 0,13.72 v 1 h 23.799 v -1 -1 h -23.799 z m 23.799,0 h -1 V 168 h 1 1 v -5.88 z m 0,5.88 v -1 h -31.429 v 1 1 h 31.429 z m 13.882,0 h -1 v 1 h 1 z m 0,-45.08 v -1 h -1 v 1 z m 6.72,0 0.816,-0.578 -0.299,-0.422 h -0.517 z m 23.52,33.18 -0.816,0.578 1.816,2.562 v -3.14 z m 0,-33.18 v -1 h -1 v 1 z m 7.56,0 h 1 v -1 h -1 z m 0,45.08 v 1 h 1 v -1 z m -6.72,0 -0.816,0.578 0.299,0.422 h 0.517 z m -23.45,-33.11 0.816,-0.578 -1.816,-2.564 v 3.142 z m 0,33.11 v 1 h 1 v -1 z m -7.63,0 h 1 v -45.08 h -1 -1 V 168 Z m 0,-45.08 v 1 h 6.72 v -1 -1 h -6.72 z m 6.72,0 -0.816,0.578 23.52,33.18 0.816,-0.578 0.816,-0.578 -23.52,-33.18 z m 23.52,33.18 h 1 v -33.18 h -1 -1 v 33.18 z m 0,-33.18 v 1 h 7.56 v -1 -1 h -7.56 z m 7.56,0 h -1 V 168 h 1 1 v -45.08 z m 0,45.08 v -1 h -6.72 v 1 1 h 6.72 z m -6.72,0 0.816,-0.578 -23.45,-33.11 -0.816,0.578 -0.816,0.578 23.45,33.11 z m -23.45,-33.11 h -1 V 168 h 1 1 v -33.11 z m 0,33.11 v -1 h -7.63 v 1 1 h 7.63 z m 57.574,0 h -1 v 1 h 1 z m 0,-39.13 h 1 v -1 h -1 z m -14.42,0 h -1 v 1 h 1 z m 0,-5.95 v -1 h -1 v 1 z m 36.4,0 h 1 v -1 h -1 z m 0,5.95 v 1 h 1 v -1 z m -14.35,0 v -1 h -1 v 1 z m 0,39.13 v 1 h 1 v -1 z m -7.63,0 h 1 v -39.13 h -1 -1 V 168 Z m 0,-39.13 v -1 h -14.42 v 1 1 h 14.42 z m -14.42,0 h 1 v -5.95 h -1 -1 v 5.95 z m 0,-5.95 v 1 h 36.4 v -1 -1 h -36.4 z m 36.4,0 h -1 v 5.95 h 1 1 v -5.95 z m 0,5.95 v -1 h -14.35 v 1 1 h 14.35 z m -14.35,0 h -1 V 168 h 1 1 v -39.13 z m 0,39.13 v -1 h -7.63 v 1 1 h 7.63 z m 24.751,-1.54 h -1 v 0.664 l 0.612,0.258 z m 0,-6.72 0.349,-0.937 -1.349,-0.502 v 1.439 z m 6.44,1.82 -0.2,0.98 0.004,0.001 z m 14.98,-0.56 -0.419,-0.908 -0.009,0.004 z m 1.61,-8.75 0.781,-0.625 z m -3.71,-2.38 -0.375,0.927 0.01,0.004 0.011,0.004 z m -7.14,-2.17 -0.251,0.968 0.012,0.003 z m -10.22,-4.76 -0.707,0.707 0.009,0.009 z m 1.4,-17.36 0.612,0.791 v 0 z m 20.3,-2.8 -0.161,0.987 h 0.003 z m 5.46,1.26 h 1 v -0.705 l -0.663,-0.237 z m 0,6.72 -0.356,0.934 1.356,0.518 v -1.452 z m -19.6,-0.7 -0.429,-0.903 v 0 z m 1.54,10.29 -0.357,0.934 0.009,0.003 z m 6.72,2.03 -0.253,0.967 0.008,0.002 z m 8.54,3.36 -0.545,0.838 0.011,0.007 0.011,0.007 z m 4.27,4.48 -0.908,0.418 0.007,0.014 0.007,0.015 z m -3.15,15.12 0.606,0.795 0.008,-0.006 z m -13.37,3.36 v -1 c -5.762,0 -10.304,-0.74 -13.682,-2.162 l -0.388,0.922 -0.388,0.922 c 3.716,1.564 8.554,2.318 14.458,2.318 z m -14.07,-2.24 h 1 v -6.72 h -1 -1 v 6.72 z m 0,-6.72 -0.348,0.937 c 2.059,0.766 4.256,1.387 6.588,1.863 l 0.2,-0.98 0.2,-0.98 c -2.24,-0.457 -4.337,-1.05 -6.291,-1.777 z m 6.44,1.82 -0.196,0.981 c 2.395,0.479 4.771,0.719 7.126,0.719 v -1 -1 c -2.218,0 -4.462,-0.226 -6.734,-0.681 z m 6.93,0.7 v 1 c 3.638,0 6.502,-0.42 8.478,-1.356 L 544.548,161 544.12,160.096 c -1.57,0.744 -4.073,1.164 -7.622,1.164 z m 8.05,-1.26 0.419,0.908 c 1.096,-0.506 1.945,-1.282 2.508,-2.322 0.556,-1.025 0.803,-2.251 0.803,-3.626 h -1 -1 c 0,1.145 -0.207,2.019 -0.562,2.674 -0.346,0.64 -0.862,1.124 -1.587,1.458 z m 2.73,-5.04 h 1 c 0,-1.701 -0.414,-3.178 -1.339,-4.335 l -0.781,0.625 -0.781,0.625 c 0.569,0.71 0.901,1.706 0.901,3.085 z m -1.12,-3.71 0.781,-0.625 c -0.904,-1.129 -2.326,-2.005 -4.137,-2.69 l -0.354,0.935 -0.354,0.935 c 1.643,0.622 2.694,1.333 3.283,2.07 z m -3.71,-2.38 0.376,-0.927 c -1.791,-0.726 -4.223,-1.462 -7.277,-2.214 l -0.239,0.971 -0.239,0.971 c 3.014,0.742 5.341,1.452 7.004,2.126 z m -7.14,-2.17 0.252,-0.968 c -4.804,-1.247 -8.003,-2.78 -9.773,-4.508 l -0.699,0.716 -0.698,0.716 c 2.15,2.098 5.764,3.739 10.667,5.012 z m -10.22,-4.76 0.707,-0.707 c -1.731,-1.731 -2.647,-4.137 -2.647,-7.343 h -1 -1 c 0,3.607 1.045,6.568 3.233,8.757 z m -2.94,-8.05 h 1 c 0,-3.687 1.327,-6.486 3.952,-8.519 l -0.612,-0.791 -0.612,-0.791 c -3.161,2.447 -4.728,5.855 -4.728,10.101 z m 4.34,-9.31 0.612,0.791 c 2.644,-2.047 6.702,-3.151 12.338,-3.151 v -1 -1 c -5.843,0 -10.419,1.136 -13.562,3.569 z m 12.95,-3.36 v 1 c 2.566,0 4.962,0.183 7.189,0.547 l 0.161,-0.987 0.161,-0.987 c -2.346,-0.383 -4.85,-0.573 -7.511,-0.573 z m 7.35,0.56 -0.158,0.987 c 2.309,0.37 4.06,0.778 5.282,1.215 l 0.336,-0.942 0.337,-0.942 c -1.391,-0.497 -3.281,-0.928 -5.639,-1.305 z m 5.46,1.26 h -1 v 6.72 h 1 1 v -6.72 z m 0,6.72 0.357,-0.934 c -3.675,-1.402 -7.717,-2.096 -12.117,-2.096 v 1 1 c 4.188,0 7.985,0.66 11.404,1.964 z m -11.76,-2.03 v -1 c -3.426,0 -6.21,0.449 -8.269,1.427 l 0.429,0.903 0.429,0.903 c 1.675,-0.795 4.118,-1.233 7.411,-1.233 z m -7.84,1.33 -0.429,-0.903 c -1.095,0.52 -1.957,1.275 -2.536,2.274 -0.575,0.991 -0.835,2.16 -0.835,3.459 h 1 1 c 0,-1.035 0.207,-1.837 0.565,-2.456 0.355,-0.611 0.893,-1.104 1.664,-1.471 z m -2.8,4.83 h -1 c 0,1.514 0.368,2.846 1.191,3.904 l 0.789,-0.614 0.79,-0.614 c -0.484,-0.622 -0.77,-1.484 -0.77,-2.676 z m 0.98,3.29 -0.789,0.614 c 0.814,1.046 2.127,1.853 3.792,2.49 l 0.357,-0.934 0.357,-0.934 c -1.508,-0.577 -2.434,-1.216 -2.927,-1.85 z m 3.36,2.17 -0.348,0.937 c 1.678,0.624 3.954,1.31 6.815,2.06 l 0.253,-0.967 0.254,-0.967 c -2.833,-0.743 -5.037,-1.41 -6.626,-2 z m 6.72,2.03 -0.245,0.969 c 3.635,0.921 6.363,2.007 8.24,3.229 l 0.545,-0.838 0.546,-0.838 c -2.137,-1.391 -5.102,-2.545 -8.84,-3.491 z m 8.54,3.36 -0.523,0.852 c 1.93,1.184 3.194,2.541 3.885,4.046 l 0.908,-0.418 0.909,-0.418 c -0.896,-1.949 -2.479,-3.578 -4.656,-4.914 z m 4.27,4.48 -0.894,0.447 c 0.761,1.523 1.154,3.279 1.154,5.293 h 1 1 c 0,-2.28 -0.447,-4.35 -1.365,-6.187 z m 1.26,5.74 h -1 c 0,3.681 -1.345,6.507 -4.024,8.591 l 0.614,0.789 0.614,0.789 c 3.202,-2.49 4.796,-5.917 4.796,-10.169 z m -4.41,9.38 -0.606,-0.795 c -2.687,2.047 -6.885,3.155 -12.764,3.155 v 1 1 c 6.068,0 10.784,-1.132 13.976,-3.565 z"
       fill="#000000"
       mask="url(#path-3-outside-2_92_15)"
       id="path6" />
  </mask>
  <mask
     id="mask14"
     maskUnits="userSpaceOnUse"
     x="59"
     y="17"
     width="494"
     height="94"
     fill="#000000">
    <rect
       fill="#ffffff"
       x="59"
       y="17"
       width="494"
       height="94"
       id="rect13" />
    <path
       d="m 60.6328,18.418 h 81.9142 v 16.289 h -63.34 v 23.9649 h 53.789 V 73.9648 H 79.207 V 110 H 60.6328 Z m 93.8442,0 h 77.988 v 16.289 h -59.414 v 18.2813 h 52.617 v 15.2929 h -52.617 v 25.4883 h 60.644 V 110 h -79.218 z m 93.843,0 h 46.582 c 7.032,0 13.125,0.7422 18.282,2.2265 5.156,1.4453 9.433,3.5547 12.832,6.3282 3.398,2.7734 5.918,6.1523 7.558,10.1367 1.68,3.9844 2.52,8.4961 2.52,13.5351 0,3.3985 -0.41,6.6407 -1.231,9.7266 -0.82,3.0469 -2.09,5.8594 -3.808,8.4375 -1.68,2.5781 -3.809,4.8828 -6.387,6.9141 -2.578,1.9921 -5.606,3.6523 -9.082,4.9804 L 335.508,110 H 312.773 L 295.547,83.9844 H 295.02 L 266.895,83.9258 V 110 H 248.32 Z m 47.051,49.4531 c 3.516,0 6.582,-0.4102 9.199,-1.2305 2.657,-0.8203 4.864,-1.9726 6.621,-3.457 1.797,-1.4844 3.125,-3.2813 3.985,-5.3906 0.898,-2.1485 1.347,-4.5313 1.347,-7.1485 0,-5.1172 -1.757,-9.0625 -5.273,-11.8359 -3.516,-2.8125 -8.809,-4.2188 -15.879,-4.2188 H 266.895 V 67.8711 Z M 352.125,18.418 h 46.582 c 7.031,0 13.125,0.7422 18.281,2.2265 5.157,1.4453 9.434,3.5547 12.832,6.3282 3.399,2.7734 5.918,6.1523 7.559,10.1367 1.68,3.9844 2.519,8.4961 2.519,13.5351 0,3.3985 -0.41,6.6407 -1.23,9.7266 -0.82,3.0469 -2.09,5.8594 -3.809,8.4375 -1.679,2.5781 -3.808,4.8828 -6.386,6.9141 -2.578,1.9921 -5.606,3.6523 -9.082,4.9804 L 439.312,110 H 416.578 L 399.352,83.9844 h -0.528 L 370.699,83.9258 V 110 h -18.574 z m 47.051,49.4531 c 3.515,0 6.582,-0.4102 9.199,-1.2305 2.656,-0.8203 4.863,-1.9726 6.621,-3.457 1.797,-1.4844 3.125,-3.2813 3.984,-5.3906 0.899,-2.1485 1.348,-4.5313 1.348,-7.1485 0,-5.1172 -1.758,-9.0625 -5.273,-11.8359 -3.516,-2.8125 -8.809,-4.2188 -15.879,-4.2188 H 370.699 V 67.8711 Z M 487.16,18.418 h 19.688 L 551.145,110 H 531.633 L 524.309,94.5898 H 470.812 L 463.723,110 H 444.152 Z M 516.984,79.2969 497.18,37.6953 477.902,79.2969 Z"
       id="path14" />
  </mask>
  <path
     d="M 27.452232,18.418 H 109.36643 V 34.707 H 46.026432 V 58.6719 H 99.815428 V 73.9648 H 46.026432 V 110 h -18.5742 z m 93.844198,0 h 77.988 v 16.289 h -59.414 v 18.2813 h 52.617 v 15.2929 h -52.617 v 25.4883 h 60.644 V 110 h -79.218 z m 93.843,0 h 46.582 c 7.032,0 13.125,0.7422 18.282,2.2265 5.156,1.4453 9.433,3.5547 12.832,6.3282 3.398,2.7734 5.918,6.1523 7.558,10.1367 1.68,3.9844 2.52,8.4961 2.52,13.5351 0,3.3985 -0.41,6.6407 -1.231,9.7266 -0.82,3.0469 -2.09,5.8594 -3.808,8.4375 -1.68,2.5781 -3.809,4.8828 -6.387,6.9141 -2.578,1.9921 -5.606,3.6523 -9.082,4.9804 L 302.32743,110 h -22.735 l -17.226,-26.0156 h -0.527 l -28.125,-0.0586 V 110 h -18.575 z m 47.051,49.4531 c 3.516,0 6.582,-0.4102 9.199,-1.2305 2.657,-0.8203 4.864,-1.9726 6.621,-3.457 1.797,-1.4844 3.125,-3.2813 3.985,-5.3906 0.898,-2.1485 1.347,-4.5313 1.347,-7.1485 0,-5.1172 -1.757,-9.0625 -5.273,-11.8359 -3.516,-2.8125 -8.809,-4.2188 -15.879,-4.2188 h -28.476 v 33.2813 z m 56.754,-49.4531 h 46.582 c 7.031,0 13.125,0.7422 18.281,2.2265 5.157,1.4453 9.434,3.5547 12.832,6.3282 3.399,2.7734 5.918,6.1523 7.559,10.1367 1.68,3.9844 2.519,8.4961 2.519,13.5351 0,3.3985 -0.41,6.6407 -1.23,9.7266 -0.82,3.0469 -2.09,5.8594 -3.809,8.4375 -1.679,2.5781 -3.808,4.8828 -6.386,6.9141 -2.578,1.9921 -5.606,3.6523 -9.082,4.9804 L 406.13143,110 h -22.734 l -17.226,-26.0156 h -0.528 l -28.125,-0.0586 V 110 h -18.574 z m 47.051,49.4531 c 3.515,0 6.582,-0.4102 9.199,-1.2305 2.656,-0.8203 4.863,-1.9726 6.621,-3.457 1.797,-1.4844 3.125,-3.2813 3.984,-5.3906 0.899,-2.1485 1.348,-4.5313 1.348,-7.1485 0,-5.1172 -1.758,-9.0625 -5.273,-11.8359 -3.516,-2.8125 -8.809,-4.2188 -15.879,-4.2188 h -28.477 v 33.2813 z m 87.984,-49.4531 h 19.688 l 44.297,91.582 h -19.512 l -7.324,-15.4102 h -53.497 L 430.54243,110 h -19.571 z m 29.824,60.8789 -19.804,-41.6016 -19.278,41.6016 z"
     fill="#000000"
     id="path13"
     style="fill:#ffffff" />
  <mask
     id="mask11"
     maskUnits="userSpaceOnUse"
     x="58"
     y="121"
     width="498"
     height="49"
     fill="#000000">
    <rect
       fill="#ffffff"
       x="58"
       y="121"
       width="498"
       height="49"
       id="rect10" />
    <path
       d="m 81.5836,168.7 c -7.42,0 -13.0433,-2.03 -16.87,-6.09 -3.78,-4.06 -5.67,-9.543 -5.67,-16.45 0,-4.947 0.7933,-9.193 2.38,-12.74 1.6333,-3.593 4.1067,-6.347 7.42,-8.26 3.3133,-1.96 7.5367,-2.94 12.67,-2.94 2.6133,0 4.9933,0.21 7.14,0.63 2.1933,0.373 4.2233,0.887 6.09,1.54 v 6.65 c -1.8667,-0.747 -3.8733,-1.307 -6.02,-1.68 -2.1,-0.42 -4.3167,-0.63 -6.65,-0.63 -5.6,0 -9.5667,1.493 -11.9,4.48 -2.2867,2.987 -3.43,7.303 -3.43,12.95 0,5.273 1.26,9.287 3.78,12.04 2.52,2.707 6.4167,4.06 11.69,4.06 2.1467,0 4.2933,-0.163 6.44,-0.49 2.1933,-0.373 4.2467,-0.933 6.16,-1.68 v 6.72 c -1.8667,0.607 -3.8967,1.073 -6.09,1.4 -2.1467,0.327 -4.5267,0.49 -7.14,0.49 z m 46.0354,0 c -7.14,0 -12.483,-1.867 -16.03,-5.6 -3.547,-3.78 -5.32,-9.613 -5.32,-17.5 0,-8.213 1.773,-14.163 5.32,-17.85 3.547,-3.687 8.89,-5.53 16.03,-5.53 7.187,0 12.53,1.843 16.03,5.53 3.547,3.687 5.32,9.637 5.32,17.85 0,7.887 -1.773,13.72 -5.32,17.5 -3.5,3.733 -8.843,5.6 -16.03,5.6 z m 0,-6.44 c 4.713,0 8.167,-1.283 10.36,-3.85 2.24,-2.613 3.36,-6.883 3.36,-12.81 0,-6.253 -1.12,-10.617 -3.36,-13.09 -2.193,-2.52 -5.647,-3.78 -10.36,-3.78 -4.667,0 -8.12,1.26 -10.36,3.78 -2.193,2.473 -3.29,6.837 -3.29,13.09 0,5.927 1.097,10.197 3.29,12.81 2.24,2.567 5.693,3.85 10.36,3.85 z m 35.615,5.74 v -45.08 h 7.84 l 14.28,29.19 14.21,-29.19 h 7.84 V 168 h -7.56 v -32.69 l -12.18,24.92 h -4.62 l -12.25,-24.92 V 168 Z m 59.804,0 v -45.08 h 20.09 c 3.453,0 6.3,0.653 8.54,1.96 2.24,1.307 3.896,3.103 4.97,5.39 1.073,2.24 1.61,4.807 1.61,7.7 0,4.48 -1.4,8.073 -4.2,10.78 -2.754,2.707 -6.487,4.06 -11.2,4.06 h -12.18 V 168 Z m 7.63,-21.21 h 10.78 c 3.033,0 5.32,-0.793 6.86,-2.38 1.54,-1.587 2.31,-3.733 2.31,-6.44 0,-2.893 -0.747,-5.133 -2.24,-6.72 -1.447,-1.587 -3.64,-2.38 -6.58,-2.38 h -11.13 z m 60.434,21.91 c -7.14,0 -12.484,-1.867 -16.03,-5.6 -3.547,-3.78 -5.32,-9.613 -5.32,-17.5 0,-8.213 1.773,-14.163 5.32,-17.85 3.546,-3.687 8.89,-5.53 16.03,-5.53 7.186,0 12.53,1.843 16.03,5.53 3.546,3.687 5.32,9.637 5.32,17.85 0,7.887 -1.774,13.72 -5.32,17.5 -3.5,3.733 -8.844,5.6 -16.03,5.6 z m 0,-6.44 c 4.713,0 8.166,-1.283 10.36,-3.85 2.24,-2.613 3.36,-6.883 3.36,-12.81 0,-6.253 -1.12,-10.617 -3.36,-13.09 -2.194,-2.52 -5.647,-3.78 -10.36,-3.78 -4.667,0 -8.12,1.26 -10.36,3.78 -2.194,2.473 -3.29,6.837 -3.29,13.09 0,5.927 1.096,10.197 3.29,12.81 2.24,2.567 5.693,3.85 10.36,3.85 z m 35.615,5.74 v -45.08 h 6.72 l 23.52,33.18 v -33.18 h 7.56 V 168 h -6.72 l -23.45,-33.11 V 168 Z m 53.515,0 v -45.08 h 31.43 v 5.95 h -23.8 v 13.65 h 21.21 v 5.88 h -21.21 v 13.72 h 23.8 V 168 Z m 45.311,0 v -45.08 h 6.72 l 23.52,33.18 v -33.18 h 7.56 V 168 h -6.72 l -23.45,-33.11 V 168 Z m 65.204,0 v -39.13 h -14.42 v -5.95 h 36.4 v 5.95 h -14.35 V 168 Z m 46.451,0.7 c -5.833,0 -10.523,-0.747 -14.07,-2.24 v -6.72 c 2.007,0.747 4.154,1.353 6.44,1.82 2.334,0.467 4.644,0.7 6.93,0.7 3.594,0 6.277,-0.42 8.05,-1.26 1.82,-0.84 2.73,-2.52 2.73,-5.04 0,-1.54 -0.373,-2.777 -1.12,-3.71 -0.746,-0.933 -1.983,-1.727 -3.71,-2.38 -1.726,-0.7 -4.106,-1.423 -7.14,-2.17 -4.853,-1.26 -8.26,-2.847 -10.22,-4.76 -1.96,-1.96 -2.94,-4.643 -2.94,-8.05 0,-3.967 1.447,-7.07 4.34,-9.31 2.894,-2.24 7.21,-3.36 12.95,-3.36 2.614,0 5.064,0.187 7.35,0.56 2.334,0.373 4.154,0.793 5.46,1.26 v 6.72 c -3.546,-1.353 -7.466,-2.03 -11.76,-2.03 -3.36,0 -5.973,0.443 -7.84,1.33 -1.866,0.887 -2.8,2.497 -2.8,4.83 0,1.353 0.327,2.45 0.98,3.29 0.654,0.84 1.774,1.563 3.36,2.17 1.634,0.607 3.874,1.283 6.72,2.03 3.687,0.933 6.534,2.053 8.54,3.36 2.054,1.26 3.477,2.753 4.27,4.48 0.84,1.68 1.26,3.593 1.26,5.74 0,3.967 -1.47,7.093 -4.41,9.38 -2.94,2.24 -7.396,3.36 -13.37,3.36 z"
       id="path11" />
  </mask>
  <path
     d="m 48.403032,168.7 c -7.42,0 -13.0433,-2.03 -16.87,-6.09 -3.78,-4.06 -5.67,-9.543 -5.67,-16.45 0,-4.947 0.7933,-9.193 2.38,-12.74 1.6333,-3.593 4.1067,-6.347 7.42,-8.26 3.3133,-1.96 7.5367,-2.94 12.67,-2.94 2.6133,0 4.9933,0.21 7.14,0.63 2.1933,0.373 4.2233,0.887 6.09,1.54 v 6.65 c -1.8667,-0.747 -3.8733,-1.307 -6.02,-1.68 -2.1,-0.42 -4.3167,-0.63 -6.65,-0.63 -5.6,0 -9.5667,1.493 -11.9,4.48 -2.2867,2.987 -3.43,7.303 -3.43,12.95 0,5.273 1.26,9.287 3.78,12.04 2.52,2.707 6.4167,4.06 11.69,4.06 2.1467,0 4.2933,-0.163 6.44,-0.49 2.1933,-0.373 4.2467,-0.933 6.16,-1.68 v 6.72 c -1.8667,0.607 -3.8967,1.073 -6.09,1.4 -2.1467,0.327 -4.5267,0.49 -7.14,0.49 z m 46.035396,0 c -7.14,0 -12.483,-1.867 -16.03,-5.6 -3.547,-3.78 -5.32,-9.613 -5.32,-17.5 0,-8.213 1.773,-14.163 5.32,-17.85 3.547,-3.687 8.89,-5.53 16.03,-5.53 7.187002,0 12.530002,1.843 16.030002,5.53 3.547,3.687 5.32,9.637 5.32,17.85 0,7.887 -1.773,13.72 -5.32,17.5 -3.5,3.733 -8.843,5.6 -16.030002,5.6 z m 0,-6.44 c 4.713,0 8.167002,-1.283 10.360002,-3.85 2.24,-2.613 3.36,-6.883 3.36,-12.81 0,-6.253 -1.12,-10.617 -3.36,-13.09 -2.193,-2.52 -5.647002,-3.78 -10.360002,-3.78 -4.667,0 -8.12,1.26 -10.36,3.78 -2.193,2.473 -3.29,6.837 -3.29,13.09 0,5.927 1.097,10.197 3.29,12.81 2.24,2.567 5.693,3.85 10.36,3.85 z M 130.05343,168 v -45.08 h 7.84 l 14.28,29.19 14.21,-29.19 h 7.84 V 168 h -7.56 v -32.69 l -12.18,24.92 h -4.62 l -12.25,-24.92 V 168 Z m 59.804,0 v -45.08 h 20.09 c 3.453,0 6.3,0.653 8.54,1.96 2.24,1.307 3.896,3.103 4.97,5.39 1.073,2.24 1.61,4.807 1.61,7.7 0,4.48 -1.4,8.073 -4.2,10.78 -2.754,2.707 -6.487,4.06 -11.2,4.06 h -12.18 V 168 Z m 7.63,-21.21 h 10.78 c 3.033,0 5.32,-0.793 6.86,-2.38 1.54,-1.587 2.31,-3.733 2.31,-6.44 0,-2.893 -0.747,-5.133 -2.24,-6.72 -1.447,-1.587 -3.64,-2.38 -6.58,-2.38 h -11.13 z m 60.434,21.91 c -7.14,0 -12.484,-1.867 -16.03,-5.6 -3.547,-3.78 -5.32,-9.613 -5.32,-17.5 0,-8.213 1.773,-14.163 5.32,-17.85 3.546,-3.687 8.89,-5.53 16.03,-5.53 7.186,0 12.53,1.843 16.03,5.53 3.546,3.687 5.32,9.637 5.32,17.85 0,7.887 -1.774,13.72 -5.32,17.5 -3.5,3.733 -8.844,5.6 -16.03,5.6 z m 0,-6.44 c 4.713,0 8.166,-1.283 10.36,-3.85 2.24,-2.613 3.36,-6.883 3.36,-12.81 0,-6.253 -1.12,-10.617 -3.36,-13.09 -2.194,-2.52 -5.647,-3.78 -10.36,-3.78 -4.667,0 -8.12,1.26 -10.36,3.78 -2.194,2.473 -3.29,6.837 -3.29,13.09 0,5.927 1.096,10.197 3.29,12.81 2.24,2.567 5.693,3.85 10.36,3.85 z m 35.615,5.74 v -45.08 h 6.72 l 23.52,33.18 v -33.18 h 7.56 V 168 h -6.72 l -23.45,-33.11 V 168 Z m 53.515,0 v -45.08 h 31.43 v 5.95 h -23.8 v 13.65 h 21.21 v 5.88 h -21.21 v 13.72 h 23.8 V 168 Z m 45.311,0 v -45.08 h 6.72 l 23.52,33.18 v -33.18 h 7.56 V 168 h -6.72 l -23.45,-33.11 V 168 Z m 65.204,0 v -39.13 h -14.42 v -5.95 h 36.4 v 5.95 h -14.35 V 168 Z m 46.451,0.7 c -5.833,0 -10.523,-0.747 -14.07,-2.24 v -6.72 c 2.007,0.747 4.154,1.353 6.44,1.82 2.334,0.467 4.644,0.7 6.93,0.7 3.594,0 6.277,-0.42 8.05,-1.26 1.82,-0.84 2.73,-2.52 2.73,-5.04 0,-1.54 -0.373,-2.777 -1.12,-3.71 -0.746,-0.933 -1.983,-1.727 -3.71,-2.38 -1.726,-0.7 -4.106,-1.423 -7.14,-2.17 -4.853,-1.26 -8.26,-2.847 -10.22,-4.76 -1.96,-1.96 -2.94,-4.643 -2.94,-8.05 0,-3.967 1.447,-7.07 4.34,-9.31 2.894,-2.24 7.21,-3.36 12.95,-3.36 2.614,0 5.064,0.187 7.35,0.56 2.334,0.373 4.154,0.793 5.46,1.26 v 6.72 c -3.546,-1.353 -7.466,-2.03 -11.76,-2.03 -3.36,0 -5.973,0.443 -7.84,1.33 -1.866,0.887 -2.8,2.497 -2.8,4.83 0,1.353 0.327,2.45 0.98,3.29 0.654,0.84 1.774,1.563 3.36,2.17 1.634,0.607 3.874,1.283 6.72,2.03 3.687,0.933 6.534,2.053 8.54,3.36 2.054,1.26 3.477,2.753 4.27,4.48 0.84,1.68 1.26,3.593 1.26,5.74 0,3.967 -1.47,7.093 -4.41,9.38 -2.94,2.24 -7.396,3.36 -13.37,3.36 z"
     fill="#000000"
     id="path10"
     style="fill:#ffffff" />
</svg>
